<svg xmlns="http://www.w3.org/2000/svg" viewBox="0 0 500 500"><g id="freepik--Floor--inject-5"><ellipse id="freepik--floor--inject-5" cx="250.05" cy="337.93" rx="240.88" ry="137.33" style="fill:#f5f5f5"></ellipse></g><g id="freepik--Shadow--inject-5"><ellipse id="freepik--shadow--inject-5" cx="116.27" cy="303.9" rx="48.82" ry="28.19" style="fill:#e6e6e6"></ellipse><path id="freepik--shadow--inject-5" d="M94.82,350.54,240.5,434.62a5.13,5.13,0,0,0,4.64,0L394.85,348.2a1.42,1.42,0,0,0,0-2.69l-145.67-84a5.15,5.15,0,0,0-4.65,0L94.82,347.86C93.54,348.6,93.54,349.8,94.82,350.54Z" style="fill:#e6e6e6"></path><ellipse id="freepik--shadow--inject-5" cx="359.39" cy="273.76" rx="66.7" ry="38.51" style="fill:#e6e6e6"></ellipse><ellipse id="freepik--shadow--inject-5" cx="128.32" cy="394.53" rx="66.7" ry="38.51" style="fill:#e6e6e6"></ellipse><path id="freepik--shadow--inject-5" d="M380.11,351.89c-8.08,4.66-8.08,12.22,0,16.88s21.17,4.66,29.24,0,8.08-12.22,0-16.88S388.18,347.22,380.11,351.89Z" style="fill:#e6e6e6"></path></g><g id="freepik--character-2--inject-5"><g id="freepik--Character--inject-5"><g id="freepik--Girl--inject-5"><path d="M359.75,291.43a1.07,1.07,0,0,0,1.07-1.07V221.77a1.07,1.07,0,1,0-2.13,0v68.59A1.06,1.06,0,0,0,359.75,291.43Z" style="fill:#455a64"></path><path d="M317.31,266.46a1.07,1.07,0,0,0,1-.67l21-53.24a1.07,1.07,0,0,0-.6-1.39,1.05,1.05,0,0,0-1.38.6l-21,53.24a1.06,1.06,0,0,0,1,1.46Z" style="fill:#455a64"></path><path d="M319.84,260.07a1.09,1.09,0,0,0,.78-.34l39.14-41.41,39.06,41.24a1.07,1.07,0,0,0,1.55-1.47L360.53,216a1.07,1.07,0,0,0-.78-.33h0a1.07,1.07,0,0,0-.77.33l-39.91,42.24a1.05,1.05,0,0,0,0,1.5A1,1,0,0,0,319.84,260.07Z" style="fill:#455a64"></path><path d="M402.19,266.46a1,1,0,0,0,.39-.07,1.07,1.07,0,0,0,.6-1.39l-21-53.24a1.07,1.07,0,1,0-2,.79l21,53.24A1.07,1.07,0,0,0,402.19,266.46Z" style="fill:#455a64"></path><path d="M318.76,258.42,316,265.76a1.23,1.23,0,0,0,0,.19.29.29,0,0,0,0,.13.82.82,0,0,0,.42.46,1.81,1.81,0,0,0,1.69,0,.76.76,0,0,0,.33-.34h0l0-.1,2.58-6.88Z" style="fill:#0D6EFD"></path><path d="M400.74,258.42l2.78,7.34a.63.63,0,0,1,0,.19v.13a.9.9,0,0,1-.42.46,1.81,1.81,0,0,1-1.69,0,.76.76,0,0,1-.33-.34h0l0-.1-2.58-6.88Z" style="fill:#0D6EFD"></path><path d="M358.52,285.05v6.07a.61.61,0,0,0,.36.5,1.91,1.91,0,0,0,1.74,0,.61.61,0,0,0,.36-.5v-6.07A2.61,2.61,0,0,0,358.52,285.05Z" style="fill:#0D6EFD"></path><path d="M312.05,211.83c0-1.91,1.68-4,5.22-6.25,6.54-4.24,25.57-14.86,34.72-19.93a.11.11,0,0,1,.08-.08c7-4.27,9.18-22.51,14.05-38,1.67-5.27,3.7-8.25,6.11-9.65.57-.33,2.68-1.49,3.15-1.78,4.79-2.86,11.06.58,18.88,4.86,7.2,3.94,12.83,9,14,22.37.69,8.15,0,23.73-1.62,35.54h0c-2.4,19.72-5.34,19.75-9.61,23.05-7.35,5.68-23.91,13.67-30.89,16.41-12.66,5-23-2.69-30.71-6.5A181.19,181.19,0,0,1,315,219.78c-1.93-1.41-2.92-2.82-2.9-4.32C312.06,214.87,312.05,212.44,312.05,211.83Z" style="fill:#263238"></path><path d="M335.39,228.21A181.19,181.19,0,0,1,315,216.11c-4.38-3.19-4-6.45,2.31-10.53C326,199.92,357,182.87,357,182.87s45,26.56,43.07,31.46-25.21,16.93-34,20.38C353.44,239.69,343.1,232,335.39,228.21Z" style="fill:#37474f"></path><path d="M372.51,137.78c4.74-2.49,10.9.89,18.51,5.07,4.88,2.67,9,5.84,11.56,11.77l3.22-1.86c-2.53-5.91-6.68-9.08-11.54-11.74-7.82-4.28-14.09-7.72-18.88-4.86C375,136.41,373.3,137.33,372.51,137.78Z" style="fill:#455a64"></path><path d="M391,142.85c-11.7-6.41-19.95-11-24.9,4.74-4.87,15.47-7,33.71-14.05,38,0,0-2.15.18,15.36,13.41,5.58,4.21,12.34,7.66,16.78,10.31,8.7,5.19,14,7.26,14.81,6.57,4.6-3.81,7.09-37.25,6-50.64S398.23,146.79,391,142.85Z" style="fill:#37474f"></path><path d="M346.23,252.93c.7.59,1.49,1.28,1.5,2.11A8.48,8.48,0,0,1,346,260c-1.54,2.06-2.31,5.75-2.38,8.21s.34,8.67-2.48,11.42-10.17,4.74-10.64.23S337.14,257,337.14,257Z" style="fill:#263238"></path><path d="M342.39,256.25a68.06,68.06,0,0,0-2,10c-.39,3.7-1.2,6.36-2.95,7.53s-4.52,1.27-3.74-1.3S337.14,257,337.14,257Z" style="fill:#f28f8f"></path><path d="M356.43,187.79s-15.74,8-22.89,12.19-10.73,6.39-11.83,9.62c-1.16,3.42-.49,8.07,3.61,20.2.91,2.68,6.07,19.39,6.07,19.39l12.08-28.33,20.2-15.14Z" style="fill:#0D6EFD"></path><path d="M356.43,187.79S341.7,195.2,333.54,200c-7,4.11-10.73,6.39-11.83,9.62-1.16,3.42-.49,8.07,3.61,20.2.91,2.68,6.07,19.39,6.07,19.39l12.08-28.33,20.2-15.14Z" style="fill:#fff;opacity:0.5"></path><path d="M331.7,280c.65.34.72,1.84.77,2.94s1,2.46-.42,4.31-4.09,2.28-6,4.81-3.16,6.12-9.1,7-10.3-1.26-11.3-3.07.08-3.41,3.95-5.34c4.11-2.06,5.28-2.66,5.28-2.66Z" style="fill:#263238"></path><path d="M326.06,267.62s-3.27,7.69-5.19,11.19-3.17,5.76-6.37,8.77c-.7.66-2.25,1.85-2.82,2.38a1.13,1.13,0,0,0-.06,1.75c1.15,1.34,6.51,2.18,9.76.23s5-5,7-6.6c1-.82,1.93-1.61,2.61-2.19a2.46,2.46,0,0,0,.85-2.26c0-.24-.08-.52-.13-.86-.23-1.78,2.79-8.69,2.79-8.69Z" style="fill:#ffa8a7"></path><path d="M397,191c2.33,6.81,2.72,15.54-3.5,21.25C389.34,216,380.19,222,373,225.34s-18.08,8.77-20.21,9.46-2.46,1.91-2.56,5.81-2.1,10.11-7.21,17.61c-5.4,7.92-8.54,13.12-8.54,13.12a9,9,0,0,1-8.86-3.14s9.94-41.24,12.18-46.13,22.29-18.79,22.29-18.79a156.79,156.79,0,0,1-3.67-15.49Z" style="fill:#0D6EFD"></path><path d="M397,191c2.33,6.81,2.72,15.54-3.5,21.25C389.34,216,380.19,222,373,225.34s-18.08,8.77-20.21,9.46-2.46,1.91-2.56,5.81-2.1,10.11-7.21,17.61c-5.4,7.92-8.54,13.12-8.54,13.12a9,9,0,0,1-8.86-3.14s9.94-41.24,12.18-46.13,22.29-18.79,22.29-18.79a156.79,156.79,0,0,1-3.67-15.49Z" style="fill:#fff;opacity:0.5"></path><path d="M334.34,224.5c1.58-5,5.75-8.65,9.7-11.7,3.23-2.48,11.48-8.48,14.34-10.56a32.11,32.11,0,0,1-1.31-5.74s1.92,4.62,3,6.78h0S340,217.34,337.81,222.07c-1.24,2.72-4.47,17.48-7.79,28.33C330.36,248.76,332.85,229.28,334.34,224.5Z" style="opacity:0.2"></path></g><path d="M365.71,135.68a12.65,12.65,0,0,0-10.61,6.26l-14.29,23.7s-21.12-7.39-22.23-8.46-.82-3.5-.7-4.84.24-4.3.44-5.15c.34-1.48-1.72-.86-2.81.61s-1.36,4.14-1.93,4.66-5.89-4.38-8.47-6.74-3.87-4.07-5.28-2.82c-1,.91-.13,2.38,1.76,4.44a28.92,28.92,0,0,1,2.45,2.73c.25.38-.32.77-.54,1-.4.45-1.12,1.19-1.1,1.82a5,5,0,0,1,.05,1c-.13.77-1,1.22-1.19,2-.13.55.14,1.12.1,1.69,0,.36-.19.7-.21,1.07a2.47,2.47,0,0,0,1,1.84c1.82,1.73,4.1,2.22,6.34,3.15,1.86.77,3.72,1,5.83,1.66s28.09,15.08,31.57,12.62,19.38-27.68,19.38-27.68C369.71,140.49,365.71,135.68,365.71,135.68Z" style="fill:#ffa8a7"></path><path d="M371.49,137.05a11.93,11.93,0,0,0-6.55-1.91c-3.42.21-7.32,1.42-9.83,5.45-3.35,5.38-11.79,20-11.79,20s2.27,5.93,11.11,7.2l12-16.68Z" style="fill:#e0e0e0"></path><path d="M358.72,164.35c-.56,5.2-2.29,23.44-2.29,23.44,3.46,8.89,12.83,9.38,20.43,9.47,9.09.1,17.65-2.29,20.13-6.26A90.18,90.18,0,0,1,392,175.33l3.34-14.57s-8-7.26,0-22.1l-10.55-3.15-12.57-1-7.32.66c-4.12,3-6.87,9.17-8.19,12.55S352.73,157.29,358.72,164.35Z" style="fill:#f5f5f5"></path><path d="M369.75,149.2c10.17-2.52,15.57-12.91,15.57-12.91l0-.63,6.08,1.82a16.33,16.33,0,0,1-8.26,10.36C374.79,152.06,369.75,149.2,369.75,149.2Z" style="fill:#455a64"></path><path d="M367.53,134.9l4.73-.42s-5,9.27-2.51,14.72C369.75,149.2,359.31,148.2,367.53,134.9Z" style="fill:#455a64"></path><path d="M393.58,181.39c-.11-.4-.22-.78-.33-1.15-.81-2.94-1.21-4.91-1.21-4.91l3.34-14.57h0l0,0,0,0c-.06-.06-.18-.18-.33-.36h0c-1.05-1.22-3.78-5.08-3-11.64h0s-2.3,8.38.68,12.74l-2.81,12.62L385.78,180l4.93-1.93a88.58,88.58,0,0,1,2,9.25c.11,1.78-4.08,7.66-13.05,9.91,8-.35,15.15-2.64,17.38-6.2h0A85.51,85.51,0,0,1,393.58,181.39Z" style="fill:#ebebeb"></path><path d="M376.46,128.32h3.67a19.06,19.06,0,0,0,19.06-19.06h0a20.89,20.89,0,0,0-20.9-20.89h0a20.89,20.89,0,0,0-20.89,20.89h0A19.06,19.06,0,0,0,376.46,128.32Z" style="fill:#263238"></path><path d="M400.43,96.39c-2.87,3.79-6.64,2-10.67-1.08s-6.79-6.19-3.91-10a9.17,9.17,0,0,1,14.58,11.06Z" style="fill:#263238"></path><path d="M385.13,89.45a2.63,2.63,0,1,1-1.77-5Z" style="fill:#263238"></path><path d="M392,114.09a4.33,4.33,0,0,0-6.91,1.18s-4.81,0-11.1-3.64A17.94,17.94,0,0,1,365.09,98c-2.24,1.25-5.12,6.72-5.17,18.37,0,9.87,3.09,12.39,4.68,13.14s4.69.4,7.71,0l-.05,5s-5,9.27-2.51,14.72c10.17-2.52,15.57-12.91,15.57-12.91l.29-13.68s1.73,1.77,4.8-.77C393,119.74,393.89,116.11,392,114.09Z" style="fill:#ffa8a7"></path><path d="M369.76,113.69a1.25,1.25,0,0,0,1.14,1.37,1.29,1.29,0,1,0-1.14-1.37Z" style="fill:#263238"></path><path d="M370.44,122.57l-2.91.84a1.5,1.5,0,0,0,1.85,1.09A1.59,1.59,0,0,0,370.44,122.57Z" style="fill:#f28f8f"></path><path d="M360.93,109.54l2.56-1.67a1.46,1.46,0,0,0-2.07-.48A1.6,1.6,0,0,0,360.93,109.54Z" style="fill:#263238"></path><path d="M360.86,112.4a1.24,1.24,0,1,0,2.48.18,1.24,1.24,0,1,0-2.48-.18Z" style="fill:#263238"></path><polygon points="366.56 112.26 366.42 120.34 362.52 119.02 366.56 112.26" style="fill:#f28f8f"></polygon><path d="M372.31,129.52c3.19-.33,9.76-2,10.85-4.58a6.66,6.66,0,0,1-2.38,3.23c-2,1.62-8.49,3.33-8.49,3.33Z" style="fill:#f28f8f"></path><path d="M412,175.88s20.49-3.7,21.86-4.6,2.11-3.39,2.68-4.67a15.24,15.24,0,0,0,.89-5.14c.29-1.78,2.62-.61,3.18.32a7.53,7.53,0,0,1,.67,2.22c.18.76.24,3.05.92,3.41s1.93-.16,2.51-.36c2.38-.84,4.22-2.49,6.29-3.86a2.76,2.76,0,0,1,1.35-.58,2.67,2.67,0,0,1,2,1.26,5.06,5.06,0,0,1,1.13,1.9,4.65,4.65,0,0,1,.09,1.58c-.3,3.6-2.91,5.89-5.76,7.78a32.06,32.06,0,0,1-9.19,4.06c-1.93.53-4.33.78-6.45,1.19S406.66,191.05,404,188.8c-1.64-1.39-3.3-7-5.06-12.25a148.83,148.83,0,0,1-4.29-16.47A26.81,26.81,0,0,1,399.07,144s4.85,1,6.73,8.17c.83,3.17,3.69,12.51,5,18.31.71,3.16,1.21,5.43,1.21,5.43" style="fill:#ffa8a7"></path><path d="M392.77,157.79c-2.7-6.19-1-16.48,2-19.29,7.59,1.3,9.51,4.89,11.6,11.95,3.21,10.89,4.84,18,4.84,18-1.89,2.53-10.53,5.69-14.08,4.61Z" style="fill:#e0e0e0"></path></g></g><g id="freepik--character-1--inject-5"><g id="freepik--character--inject-5"><path d="M122.6,101.58S129,103,132,110.72s8.25,25.88,8.25,25.88,16.62-11.3,19.55-14,2.48-3.87,5-7c2.88-3.62,5.08-7,6.16-4.54.72,1.64-.15,3.23-1.07,5.06s4.66.32,9.86-4.66c3.45-3.29,5.76,2.51,5.1,6.6-.59,3.61-3.25,5.79-8,8.12-5.06,2.46-7.22,1.84-11.53,5.21s-23.37,22-28.08,21.2c-6.44-1.13-14.47-28.38-14.47-28.38Z" style="fill:#b16668"></path><path d="M122.6,101.58a51.78,51.78,0,0,1-3.13,7.12c-1.25,2.13,8.15,42.91,17.35,45,4,.91,27.2-20.59,27.2-20.59a13.56,13.56,0,0,1-6.65-9.31l-16.83,11.81s-2.12-7.18-4.71-15.4C133.16,111.67,130.71,102.48,122.6,101.58Z" style="fill:#37474f"></path><rect x="83.6" y="282.11" width="9.2" height="15.76" transform="translate(176.41 579.98) rotate(180)" style="fill:#b16668"></rect><polygon points="121.25 285.94 130.44 286.25 130.91 269.58 121.25 269.26 121.25 285.94" style="fill:#b16668"></polygon><path d="M84.9,169.64c0,8.78-.61,59.89-.61,59.89-.22,2.53-2.65,7-2.84,16.13C81.18,258.87,83.21,290,83.21,290a12.11,12.11,0,0,0,10.25.2s7.22-44,8.87-57.09c1.44-11.41,6.41-41.87,6.41-41.87l7,38.57a52.65,52.65,0,0,0-1.14,14.63c.43,6,6,36.34,6,36.34a12.59,12.59,0,0,0,10.63.82s.55-47.56.66-53.11c.12-6.33-2.64-60.75-2.64-60.75Z" style="fill:#0D6EFD"></path><path d="M92.81,293.33V292c.49,0,.79.48,1,1.66.14.85.26,1.49.54,2.61A31,31,0,0,0,95.94,301c1.3,3.21,2.39,4.4,5.37,8.15a35.46,35.46,0,0,1,2.86,3.29c.56,1,.75,3.75-.19,4.38-3.48,2.31-8.75,2.38-12.49,1.28A7.53,7.53,0,0,1,86.07,312c-.13-.85-.08-1.71-.18-2.57a12.13,12.13,0,0,0-2.31-5.34,16.34,16.34,0,0,1-1.76-2.91c-.78-1.89-.16-4,.34-5.91.42-1.62.89-3.41,1.44-3.26v1a7.29,7.29,0,0,0,4.6,1.56C89.55,294.62,92.82,294.35,92.81,293.33Z" style="fill:#263238"></path><path d="M130.54,283.42c.48,0,.87.69,1.92,1.83a20.16,20.16,0,0,0,5.42,3.89c3.44,1.73,10.14,4.38,13.18,5.75,1.89.85,1.8,3.14-.16,4.44s-6.68,2.24-12.36,1c-3.09-.69-7.12-3.55-9.67-3.39s-7.31.12-9.19-1.18-1.13-4.07-.6-6.44c.58-2.6,1.31-6.65,2.17-6.47v.89c1.1,1.68,6.81,2.36,9.24,1.13Z" style="fill:#263238"></path><path d="M108.74,191.23a34.21,34.21,0,0,0,12.82-7.35s-2.48,4.63-9.83,8.94l3.56,34.31Z" style="opacity:0.2"></path><path d="M100.85,102.21c-3.13.75-9.44,1.78-10.85,8-1.71,7.5-2.26,23.81-2.26,23.81l-.58,36.3c6.34,4.62,29.62,7.14,43-2.61,0,0-1.63-43.59-1.63-50.38s-3.77-14.93-14.19-15.54Z" style="fill:#f5f5f5"></path><path d="M114.16,101.11s4.68,3.71,5.94,9.2,1.48,66.8,1.48,66.8,6.5-1.2,9.55-3.6c0,0-.39-48.39-1-56.39-.94-12.14-.84-15.63-16-16.91Z" style="fill:#455a64"></path><path d="M98.11,100.21s8.67,5.34,8.77,26.57c.08,18.35.7,50.33.7,50.33s-14.36,2.11-23.46-3.33c0,0-1.08-44.51-.91-51.4.2-7.9.24-19.23,2.87-19.93A100.59,100.59,0,0,1,98.11,100.21Z" style="fill:#455a64"></path><path d="M65.85,149c8.63-35.3,11.6-46.1,22.09-46,3.06,3.66,1.31,15-.72,20.56,0,0-9.28,22.67-11,30.76-1.51,7.11-3.23,16.05-3.12,22.16a4.47,4.47,0,0,0,1.2,2.91c2,2.13,2,3.85,3.26,6.22,1,1.85,2.09,2.54,1.78,2.95a2.38,2.38,0,0,1-3.24.24,12.2,12.2,0,0,1-2.46-2.35,24.81,24.81,0,0,0,2,6.55c2.22,5,1.68,7.54-5.06,5.76C66.3,197.64,63.65,194.13,63,184a76.69,76.69,0,0,1-.11-11.23C63.81,163.11,64.46,154.65,65.85,149Z" style="fill:#b16668"></path><path d="M89.37,101.67s-8.41.94-10.53,4.1c-3,4.45-5.25,11-10.18,28.51S62.24,164.57,62,174.42c0,0,6.16,2.88,11.85-.4,0,0,2.52-15.23,4.76-23.34S88,125,88,125,93.36,113.86,89.37,101.67Z" style="fill:#37474f"></path><polygon points="97.14 111.82 101.11 116.73 99.13 122.33 104.35 135.71 98.05 122.33 100.25 117.05 97.14 111.82" style="fill:#37474f"></polygon><polygon points="125.16 110.24 124.29 115.32 127.73 119.8 122.95 134.86 126.65 119.96 123.48 115.78 125.16 110.24" style="fill:#37474f"></polygon><path d="M103.1,72a12.65,12.65,0,1,0,12.65-12.65A12.64,12.64,0,0,0,103.1,72Z" style="fill:#263238"></path><path d="M93.88,81s2.05,9.63,2.87,11.21a4.39,4.39,0,0,0,2.52,2l-.14-6.77Z" style="fill:#263238"></path><path d="M96.45,67.15a4.76,4.76,0,0,0-3.92,1.38c-1.69,1.73-.75,7.13,1.35,12.42l3.86.44Z" style="fill:#263238"></path><path d="M98.9,81.4c-.77.46-1.88-1-2.83-2S92,77,90.44,80.28,91.81,88,94.27,88.8c4.23,1.33,4.86-1.38,4.86-1.38l.31,15.72h0c2.93,3.75,9.5,8.15,13,7.52,2.82-.5,3.44-5.27.74-8.39V97.63a26.64,26.64,0,0,0,5.7.29c3.11-.48,5.07-2.94,6-6.3,1.52-5.41,2.09-9.77.81-20.41-1.41-11.65-15-11.77-22.29-7.17S98.9,81.4,98.9,81.4Z" style="fill:#b16668"></path><path d="M98.9,82.7c-.39,0-1.87-2.45-2.83-3.33-1.34-1.21.38-12.22.38-12.22a5.34,5.34,0,0,1,.92-5.94c1.83-2,4.39-4.47,12.69-3.49,5.91.7,12.35,2.55,17.56,0a8.85,8.85,0,0,1-3.09,9.41s-1.88,1.21-6.83,1.82A73.94,73.94,0,0,1,104,68.68c-1.44-.2-1.74,1.19-2.52,5C100.77,77,100.21,82.67,98.9,82.7Z" style="fill:#263238"></path><path d="M96.46,68,91.78,65.5a2.59,2.59,0,0,1,3.54-1.18A2.79,2.79,0,0,1,96.46,68Z" style="fill:#263238"></path><path d="M113.2,97.63s-6.94-1.4-9.37-2.69a8,8,0,0,1-3.35-3.32,10.84,10.84,0,0,0,1.9,3.91c1.78,2.27,10.82,3.94,10.82,3.94Z" style="fill:#9a4a4d"></path><path d="M111.53,79.66a1.39,1.39,0,1,1-1.39-1.45A1.41,1.41,0,0,1,111.53,79.66Z" style="fill:#263238"></path><path d="M110.06,74.41l-3,1.64a1.78,1.78,0,0,1,.69-2.37A1.67,1.67,0,0,1,110.06,74.41Z" style="fill:#263238"></path><path d="M112.57,89.27l3.18,1.19a1.67,1.67,0,0,1-2.16,1.05A1.77,1.77,0,0,1,112.57,89.27Z" style="fill:#9a4a4d"></path><path d="M123.94,75.57l-2.72-2.09a1.65,1.65,0,0,1,2.36-.37A1.81,1.81,0,0,1,123.94,75.57Z" style="fill:#263238"></path><path d="M123.1,79.26a1.39,1.39,0,1,1-1.39-1.45A1.42,1.42,0,0,1,123.1,79.26Z" style="fill:#263238"></path><polygon points="116.01 77.94 116.47 86.31 120.84 84.82 116.01 77.94" style="fill:#9a4a4d"></polygon><path d="M117.53,109.7c-.86,2-2.43,2.86-5.29,3.18a10.6,10.6,0,0,1-7.89-2.75l3.55-3.53,4.5,3.39.38-3.78Z" style="fill:#37474f"></path><path d="M115.29,108.6a9.5,9.5,0,0,1,.47,3.8,6.45,6.45,0,0,1-1.27,3.16,3.5,3.5,0,0,1-3.07.34,8.43,8.43,0,0,1-2.92-6.36l3.9.45Z" style="fill:#455a64"></path><path d="M114.49,115.56s4.62,25.5,4.81,27.55-2.66,9.37-4.42,9.44-5.22-6.56-5.27-8.43,1.81-28.22,1.81-28.22Z" style="fill:#455a64"></path><path d="M111.42,115.9a3.11,3.11,0,0,0,3.07-.34l.07.4a3.53,3.53,0,0,1-3.19.64Z" style="fill:#37474f"></path><path d="M112.4,110l-13-9.92-.06-2.94s-3,1.15-3.7,6.49a22.93,22.93,0,0,0,10.15,10.8l2.73-4.88Z" style="fill:#e0e0e0"></path><path d="M113.2,98.48a6.51,6.51,0,0,1,4.2,2.58c1.3,2.15,1,10.36,1,10.36l-3.11-2.82L112.4,110c.28-2.74.81-7.72.81-7.72Z" style="fill:#e0e0e0"></path></g></g><g id="freepik--Desk--inject-5"><g id="freepik--desk--inject-5"><g id="freepik--desk--inject-5"><path d="M195.13,292.24v106.7a1.13,1.13,0,0,0,.51.88l1.09.63a1.14,1.14,0,0,0,1,0l1.09-.63a1.13,1.13,0,0,0,.51-.88V292.24c0-.32-.23-.46-.51-.29l-1.09.62a1.08,1.08,0,0,1-1,0l-1.09-.62C195.36,291.78,195.13,291.92,195.13,292.24Z" style="fill:#37474f"></path><path d="M197.75,400.45l1.09-.63a1.13,1.13,0,0,0,.51-.88V292.24c0-.32-.23-.46-.51-.29l-1.09.62a1.15,1.15,0,0,0-.51.89V400.15C197.24,400.48,197.47,400.61,197.75,400.45Z" style="fill:#455a64"></path><path d="M175.71,202.88V307.52a1.13,1.13,0,0,0,.51.89l1.09.63a1.14,1.14,0,0,0,1,0l1.09-.63a1.13,1.13,0,0,0,.51-.89V202.88c0-.33-.23-.46-.51-.3l-1.09.63a1.14,1.14,0,0,1-1,0l-1.09-.63C175.94,202.42,175.71,202.55,175.71,202.88Z" style="fill:#37474f"></path><path d="M178.33,309l1.09-.63a1.13,1.13,0,0,0,.51-.89V202.88c0-.33-.23-.46-.51-.3l-1.09.63a1.13,1.13,0,0,0-.51.88V308.74C177.82,309.07,178.05,309.2,178.33,309Z" style="fill:#455a64"></path><path d="M110.27,273.26l67.55-39v-2.43l-2.11-1.22-67.55,39c-.28.17-.28.43,0,.59l1.09.63a1.13,1.13,0,0,1,.51.89V273C109.76,273.29,110,273.42,110.27,273.26Z" style="fill:#455a64"></path><path d="M177.82,231.83l-2.11-1.22h0l-67.55,39c-.28.17-.28.43,0,.59l1.09.63a1.14,1.14,0,0,0,1,0Z" style="fill:#37474f"></path><path d="M106.66,242.74V347.39a1.13,1.13,0,0,0,.51.88l1.09.63a1.14,1.14,0,0,0,1,0l1.09-.63a1.13,1.13,0,0,0,.51-.88V242.74c0-.32-.23-.46-.51-.29l-1.09.62a1.08,1.08,0,0,1-1,0l-1.09-.62C106.89,242.28,106.66,242.42,106.66,242.74Z" style="fill:#37474f"></path><path d="M109.28,348.9l1.09-.63a1.13,1.13,0,0,0,.51-.88V242.74c0-.32-.23-.46-.51-.29l-1.09.62a1.15,1.15,0,0,0-.51.89V348.61C108.77,348.93,109,349.06,109.28,348.9Z" style="fill:#455a64"></path><polygon points="242.83 411.09 311.88 371.22 311.89 278.85 242.83 318.71 242.83 411.09" style="fill:#37474f"></polygon><polygon points="197.24 384.81 242.82 411.08 242.83 318.71 197.24 292.43 197.24 384.81" style="fill:#455a64"></polygon><polygon points="197.24 297.12 197.24 299.46 242.82 325.75 242.82 323.4 197.24 297.12" style="fill:#37474f"></polygon><polygon points="197.24 325.57 197.24 327.92 242.82 354.19 242.82 351.87 197.24 325.57" style="fill:#37474f"></polygon><polygon points="206.61 308.03 206.61 310.15 230.32 323.82 230.33 321.69 206.61 308.03" style="fill:#37474f"></polygon><polygon points="206.61 337.42 206.61 339.54 230.32 353.2 230.33 351.08 206.61 337.42" style="fill:#37474f"></polygon><polygon points="197.24 354.01 197.24 356.35 242.82 382.64 242.82 380.3 197.24 354.01" style="fill:#37474f"></polygon><polygon points="197.24 382.47 197.24 384.81 242.82 411.08 242.82 408.76 197.24 382.47" style="fill:#37474f"></polygon><polygon points="206.61 364.93 206.61 367.05 230.32 380.71 230.33 378.59 206.61 364.93" style="fill:#37474f"></polygon><path d="M378.82,238.35v106.7a1.11,1.11,0,0,0,.52.88l1.08.63a1.17,1.17,0,0,0,1,0l1.08-.63a1.13,1.13,0,0,0,.51-.88V238.35c0-.32-.23-.46-.51-.29l-1.08.62a1.1,1.1,0,0,1-1,0l-1.08-.62C379.05,237.89,378.82,238,378.82,238.35Z" style="fill:#37474f"></path><path d="M381.45,346.56l1.08-.63a1.13,1.13,0,0,0,.51-.88V238.35c0-.32-.23-.46-.51-.29l-1.08.62a1.13,1.13,0,0,0-.52.89v106.7C380.93,346.59,381.16,346.72,381.45,346.56Z" style="fill:#455a64"></path><path d="M313.39,310.8l67.54-39v-2.43l-2.11-1.22-67.54,39a.31.31,0,0,0,0,.59l1.08.63a1.13,1.13,0,0,1,.51.88v1.26C312.87,310.83,313.1,311,313.39,310.8Z" style="fill:#455a64"></path><path d="M380.93,269.38l-2.11-1.22h0l-67.54,39a.31.31,0,0,0,0,.59l1.08.63a1.17,1.17,0,0,0,1,0Z" style="fill:#37474f"></path><path d="M309.77,278.22v106.7a1.15,1.15,0,0,0,.51.89l1.09.62a1.08,1.08,0,0,0,1,0l1.09-.62a1.15,1.15,0,0,0,.51-.89V278.22c0-.32-.23-.45-.51-.29l-1.09.63a1.14,1.14,0,0,1-1,0l-1.09-.63C310,277.77,309.77,277.9,309.77,278.22Z" style="fill:#37474f"></path><path d="M312.39,386.43l1.09-.62a1.15,1.15,0,0,0,.51-.89V278.22c0-.32-.23-.45-.51-.29l-1.09.63a1.13,1.13,0,0,0-.51.88v106.7C311.88,386.46,312.11,386.6,312.39,386.43Z" style="fill:#455a64"></path><path d="M244.33,350.65l67.55-39v-2.43L309.77,308l-67.55,39a.31.31,0,0,0,0,.59l1.09.63a1.13,1.13,0,0,1,.51.88v1.26C243.82,350.68,244.05,350.82,244.33,350.65Z" style="fill:#455a64"></path><path d="M311.88,309.23,309.77,308h0l-67.55,39a.31.31,0,0,0,0,.59l1.09.63a1.14,1.14,0,0,0,1,0Z" style="fill:#37474f"></path><path d="M240.71,318.09v106.7a1.11,1.11,0,0,0,.52.88l1.08.63a1.17,1.17,0,0,0,1,0l1.08-.63a1.13,1.13,0,0,0,.51-.88V318.09c0-.33-.23-.46-.51-.3l-1.08.63a1.17,1.17,0,0,1-1,0l-1.08-.63C240.94,317.63,240.71,317.76,240.71,318.09Z" style="fill:#37474f"></path><path d="M243.34,426.3l1.08-.63a1.13,1.13,0,0,0,.51-.88V318.09c0-.33-.23-.46-.51-.3l-1.08.63a1.12,1.12,0,0,0-.52.89V426C242.82,426.33,243.05,426.46,243.34,426.3Z" style="fill:#455a64"></path><g id="freepik--desk--inject-5"><path d="M101.8,240.9v-.37a2,2,0,0,1,.93-1.61L244.9,156.81a2.06,2.06,0,0,1,1.87,0l139.17,80.35a2.08,2.08,0,0,1,.93,1.62v.37a2.07,2.07,0,0,1-.93,1.61L243.76,322.87a2,2,0,0,1-1.86,0L102.73,242.51A2,2,0,0,1,101.8,240.9Z" style="fill:#0D6EFD"></path><g style="opacity:0.7000000000000001"><path d="M101.8,240.9v-.37a2,2,0,0,1,.93-1.61L244.9,156.81a2.06,2.06,0,0,1,1.87,0l139.17,80.35a2.08,2.08,0,0,1,.93,1.62v.37a2.07,2.07,0,0,1-.93,1.61L243.76,322.87a2,2,0,0,1-1.86,0L102.73,242.51A2,2,0,0,1,101.8,240.9Z" style="fill:#fff"></path></g><path d="M242.83,320.57v2.52a1.88,1.88,0,0,1-.93-.22L102.73,242.51a2,2,0,0,1-.93-1.61v-.37a2.06,2.06,0,0,1,.76-1.49c-.34.29-.28.69.17,1L241.9,320.35A1.88,1.88,0,0,0,242.83,320.57Z" style="fill:#0D6EFD"></path><g style="opacity:0.6000000000000001"><path d="M242.83,320.57v2.52a1.88,1.88,0,0,1-.93-.22L102.73,242.51a2,2,0,0,1-.93-1.61v-.37a2.06,2.06,0,0,1,.76-1.49c-.34.29-.28.69.17,1L241.9,320.35A1.88,1.88,0,0,0,242.83,320.57Z" style="fill:#fff"></path></g><path d="M102.73,240,241.9,320.35a2,2,0,0,0,1.86,0l142.18-82.11a.57.57,0,0,0,0-1.08L246.77,156.81a2.06,2.06,0,0,0-1.87,0L102.73,238.92C102.21,239.21,102.21,239.69,102.73,240Z" style="fill:#0D6EFD"></path><g style="opacity:0.8"><path d="M102.73,240,241.9,320.35a2,2,0,0,0,1.86,0l142.18-82.11a.57.57,0,0,0,0-1.08L246.77,156.81a2.06,2.06,0,0,0-1.87,0L102.73,238.92C102.21,239.21,102.21,239.69,102.73,240Z" style="fill:#fff"></path></g><path d="M141.67,219.87,164.39,233a2.84,2.84,0,0,0,2.6,0l25.84-14.91a.79.79,0,0,0,0-1.5l-22.72-13.11a2.84,2.84,0,0,0-2.6,0l-25.84,14.91C141,218.79,141,219.46,141.67,219.87Z" style="opacity:0.05"></path></g><polygon points="206.61 339.54 208.86 338.71 206.61 337.42 206.61 339.54" style="fill:#263238"></polygon><polygon points="206.61 367.05 208.86 366.22 206.61 364.93 206.61 367.05" style="fill:#263238"></polygon><polygon points="206.61 310.17 208.86 309.34 206.61 308.05 206.61 310.17" style="fill:#263238"></polygon></g><g id="freepik--Notebook--inject-5"><path d="M236.48,192.14a2.6,2.6,0,0,1-1.3-.34l-19.83-11.45L243.69,164l18.06,10.43a2,2,0,0,1,0,3.55l-24,13.83A2.64,2.64,0,0,1,236.48,192.14Z" style="opacity:0.05"></path><path d="M242.89,166l18.17,9.58.38.58v.48a.67.67,0,0,1-.38.58l-23.95,13.84a1.3,1.3,0,0,1-.63.15,1.24,1.24,0,0,1-.62-.15l-17.77-10.26v-.48Z" style="fill:#263238"></path><path d="M236.48,190.77a1.31,1.31,0,0,0,.63-.16l23.95-13.83a.69.69,0,0,0,.38-.59.67.67,0,0,0-.38-.58l-17.37-10-25.6,14.78,17.77,10.26A1.24,1.24,0,0,0,236.48,190.77Z" style="fill:#455a64"></path><path d="M243.69,164.18l17.18,9.92.17.25v1.84h0a.31.31,0,0,1-.17.25l-24,13.83a.91.91,0,0,1-.85,0l-17.19-9.92v-1.84Z" style="fill:#ebebeb"></path><path d="M218.87,178.51l.22.12,2.79,1.62.52.3,13.65,7.88a1,1,0,0,0,.86,0l24-13.83a.27.27,0,0,0,0-.5l-.23-.13-16.95-9.79-24.6,14.21-.06,0Z" style="fill:#f0f0f0"></path><path d="M236.48,188.53v1.84a.85.85,0,0,0,.43-.1l24-13.83a.31.31,0,0,0,.17-.25v-1.84a.31.31,0,0,1-.17.25l-24,13.83A.85.85,0,0,1,236.48,188.53Z" style="fill:#e0e0e0"></path><path d="M218.87,178.26l3.1,1.79.48.28,13.6,7.85a.93.93,0,0,0,.86,0l21.45-12.38.54-.32a5.19,5.19,0,0,0,1.74-1.51l0-.06a.24.24,0,0,0,.05-.13.37.37,0,0,0-.3-.43,8.29,8.29,0,0,1-1.61-.68h0l-15.1-8.72Z" style="fill:#fafafa"></path><path d="M222.08,178.05a.25.25,0,0,1,0,.46.87.87,0,0,1-.8,0c-.22-.13-.22-.34,0-.46A.87.87,0,0,1,222.08,178.05Z" style="opacity:0.1"></path><path d="M219,177.8a2.56,2.56,0,0,0,0,.39l.28-.16a1.77,1.77,0,0,1,0-.23,1.11,1.11,0,0,1,.4-1,.6.6,0,0,1,.29-.08,1.1,1.1,0,0,1,.49.15,3,3,0,0,1,1.2,1.72.77.77,0,0,0,.3,0,3.35,3.35,0,0,0-1.35-1.94,1.07,1.07,0,0,0-1.07-.08A1.37,1.37,0,0,0,219,177.8Z" style="fill:#263238"></path><path d="M219,178.35s0,0,0,.07l.06,0Z" style="fill:#263238"></path><path d="M224.48,176.66c.22.13.22.33,0,.46a.87.87,0,0,1-.8,0c-.22-.13-.22-.33,0-.46A.87.87,0,0,1,224.48,176.66Z" style="opacity:0.1"></path><path d="M221.36,176.41a2.8,2.8,0,0,0,0,.4l.28-.16a1.93,1.93,0,0,1,0-.24,1.11,1.11,0,0,1,.4-1,.59.59,0,0,1,.29-.07,1,1,0,0,1,.49.15,3,3,0,0,1,1.2,1.72,1,1,0,0,0,.3,0,3.38,3.38,0,0,0-1.35-1.94,1,1,0,0,0-1.07-.07A1.36,1.36,0,0,0,221.36,176.41Z" style="fill:#263238"></path><path d="M226.88,175.27a.25.25,0,0,1,0,.47.93.93,0,0,1-.8,0,.25.25,0,0,1,0-.47A.93.93,0,0,1,226.88,175.27Z" style="opacity:0.1"></path><path d="M223.77,175a2.69,2.69,0,0,0,0,.4l.28-.16a1.94,1.94,0,0,1,0-.24,1.06,1.06,0,0,1,.41-1,.54.54,0,0,1,.28-.08,1,1,0,0,1,.49.15,3,3,0,0,1,1.2,1.72.75.75,0,0,0,.3,0,3.38,3.38,0,0,0-1.35-1.94,1,1,0,0,0-1.07-.07A1.37,1.37,0,0,0,223.77,175Z" style="fill:#263238"></path><path d="M229.28,173.89c.22.13.22.33,0,.46a.87.87,0,0,1-.8,0c-.22-.13-.22-.33,0-.46A.87.87,0,0,1,229.28,173.89Z" style="opacity:0.1"></path><path d="M226.17,173.64a2.8,2.8,0,0,0,0,.4l.28-.17a1.64,1.64,0,0,1,0-.23,1.09,1.09,0,0,1,.41-1,.53.53,0,0,1,.28-.07,1,1,0,0,1,.49.15,2.93,2.93,0,0,1,1.2,1.71.73.73,0,0,0,.3,0,3.35,3.35,0,0,0-1.35-1.94,1.07,1.07,0,0,0-1.07-.08A1.39,1.39,0,0,0,226.17,173.64Z" style="fill:#263238"></path><path d="M231.68,172.5c.22.13.22.34,0,.46a.87.87,0,0,1-.8,0c-.22-.12-.22-.33,0-.46A.87.87,0,0,1,231.68,172.5Z" style="opacity:0.1"></path><path d="M228.57,172.25a2.69,2.69,0,0,0,0,.4l.28-.16a1.94,1.94,0,0,1,0-.24,1.09,1.09,0,0,1,.41-1,.54.54,0,0,1,.29-.07,1,1,0,0,1,.48.15,3,3,0,0,1,1.21,1.72.92.92,0,0,0,.29,0,3.38,3.38,0,0,0-1.35-1.94,1,1,0,0,0-1.07-.07A1.36,1.36,0,0,0,228.57,172.25Z" style="fill:#263238"></path><path d="M234.08,171.12c.22.12.22.33,0,.46a.9.9,0,0,1-.8,0c-.22-.13-.22-.34,0-.46A.87.87,0,0,1,234.08,171.12Z" style="opacity:0.1"></path><path d="M231,170.86a2.69,2.69,0,0,0,0,.4l.28-.16a1.93,1.93,0,0,1,0-.24,1.08,1.08,0,0,1,.4-1,.57.57,0,0,1,.29-.08,1,1,0,0,1,.49.15,3,3,0,0,1,1.2,1.72.92.92,0,0,0,.29,0,3.35,3.35,0,0,0-1.35-1.94,1,1,0,0,0-1.07-.08A1.37,1.37,0,0,0,231,170.86Z" style="fill:#263238"></path><path d="M236.48,169.73c.22.13.22.33,0,.46a.85.85,0,0,1-.79,0c-.23-.13-.23-.33,0-.46A.85.85,0,0,1,236.48,169.73Z" style="opacity:0.1"></path><path d="M233.37,169.48a2.8,2.8,0,0,0,0,.4l.28-.16a1.93,1.93,0,0,1,0-.24,1.09,1.09,0,0,1,.4-1,.57.57,0,0,1,.29-.07,1,1,0,0,1,.49.15,3,3,0,0,1,1.2,1.71.7.7,0,0,0,.29,0,3.3,3.3,0,0,0-1.35-1.94,1,1,0,0,0-1.07-.07A1.36,1.36,0,0,0,233.37,169.48Z" style="fill:#263238"></path><path d="M238.88,168.34c.22.13.22.34,0,.46a.85.85,0,0,1-.79,0c-.22-.12-.22-.33,0-.46A.91.91,0,0,1,238.88,168.34Z" style="opacity:0.1"></path><path d="M235.77,168.09a2.69,2.69,0,0,0,0,.4l.28-.16a1.93,1.93,0,0,1,0-.24,1.08,1.08,0,0,1,.4-1,.57.57,0,0,1,.29-.08,1,1,0,0,1,.49.15,3,3,0,0,1,1.2,1.72.92.92,0,0,0,.29,0,3.33,3.33,0,0,0-1.34-1.94,1.06,1.06,0,0,0-1.08-.07A1.37,1.37,0,0,0,235.77,168.09Z" style="fill:#263238"></path><path d="M241.28,167c.22.12.22.33,0,.46a.85.85,0,0,1-.79,0c-.22-.13-.22-.34,0-.46A.85.85,0,0,1,241.28,167Z" style="opacity:0.1"></path><path d="M238.17,166.71a2.56,2.56,0,0,0,0,.39l.28-.16a1.85,1.85,0,0,1,0-.23,1.11,1.11,0,0,1,.4-1,.6.6,0,0,1,.29-.08,1,1,0,0,1,.49.15,3,3,0,0,1,1.2,1.72.7.7,0,0,0,.29,0,3.3,3.3,0,0,0-1.34-1.94,1.06,1.06,0,0,0-1.08-.08A1.39,1.39,0,0,0,238.17,166.71Z" style="fill:#263238"></path><path d="M243.69,165.57a.25.25,0,0,1,0,.46.87.87,0,0,1-.8,0c-.22-.13-.22-.33,0-.46A.87.87,0,0,1,243.69,165.57Z" style="opacity:0.1"></path><path d="M240.57,165.32a2.8,2.8,0,0,0,0,.4l.28-.16a1.93,1.93,0,0,1,0-.24,1.11,1.11,0,0,1,.4-1,.59.59,0,0,1,.29-.07,1,1,0,0,1,.49.15,3,3,0,0,1,1.2,1.72,1,1,0,0,0,.3,0,3.38,3.38,0,0,0-1.35-1.94,1,1,0,0,0-1.07-.07A1.36,1.36,0,0,0,240.57,165.32Z" style="fill:#263238"></path><path d="M238.88,185.73a.37.37,0,0,1-.14,0l-13.22-7.63a.29.29,0,0,1-.1-.39.28.28,0,0,1,.39-.11L239,185.19a.29.29,0,0,1,.1.39A.29.29,0,0,1,238.88,185.73Z" style="fill:#ebebeb"></path><path d="M240.48,184.8a.27.27,0,0,1-.14,0l-13.22-7.63a.28.28,0,0,1,.29-.49l13.22,7.63a.29.29,0,0,1,.1.39A.29.29,0,0,1,240.48,184.8Z" style="fill:#ebebeb"></path><path d="M242.08,183.88a.43.43,0,0,1-.14,0l-13.22-7.63a.29.29,0,0,1-.1-.39.28.28,0,0,1,.39-.11l13.22,7.64a.29.29,0,0,1-.15.53Z" style="fill:#ebebeb"></path><path d="M243.69,183a.28.28,0,0,1-.15,0l-13.21-7.63a.28.28,0,0,1-.11-.39.29.29,0,0,1,.39-.1l13.22,7.63a.29.29,0,0,1,.1.39A.28.28,0,0,1,243.69,183Z" style="fill:#ebebeb"></path><path d="M245.29,182a.28.28,0,0,1-.15,0l-13.21-7.63a.29.29,0,0,1-.11-.39.29.29,0,0,1,.39-.11l13.22,7.64a.29.29,0,0,1,.1.39A.28.28,0,0,1,245.29,182Z" style="fill:#ebebeb"></path><path d="M246.89,181.1a.32.32,0,0,1-.14,0l-13.22-7.64a.28.28,0,0,1-.11-.39.29.29,0,0,1,.39-.1L247,180.57a.28.28,0,0,1,.1.39A.27.27,0,0,1,246.89,181.1Z" style="fill:#ebebeb"></path><path d="M248.49,180.18a.23.23,0,0,1-.14,0l-13.22-7.63a.29.29,0,0,1-.11-.39.28.28,0,0,1,.39-.1l13.22,7.63a.29.29,0,0,1,.11.39A.3.3,0,0,1,248.49,180.18Z" style="fill:#ebebeb"></path><path d="M250.09,179.25a.32.32,0,0,1-.14,0l-13.22-7.64a.28.28,0,0,1-.11-.38.29.29,0,0,1,.39-.11l13.22,7.63a.29.29,0,0,1,.11.39A.3.3,0,0,1,250.09,179.25Z" style="fill:#ebebeb"></path><path d="M251.69,178.33a.23.23,0,0,1-.14,0l-13.22-7.63a.28.28,0,0,1-.1-.39.28.28,0,0,1,.38-.1l13.22,7.63a.28.28,0,0,1,.11.39A.3.3,0,0,1,251.69,178.33Z" style="fill:#ebebeb"></path><path d="M253.29,177.41a.33.33,0,0,1-.14,0l-13.22-7.63a.29.29,0,0,1,.29-.5l13.21,7.64a.27.27,0,0,1,.11.38A.31.31,0,0,1,253.29,177.41Z" style="fill:#ebebeb"></path><path d="M254.89,176.48a.23.23,0,0,1-.14,0l-13.22-7.63a.28.28,0,0,1,.29-.49L255,176a.29.29,0,0,1,.1.39A.29.29,0,0,1,254.89,176.48Z" style="fill:#ebebeb"></path><path d="M256.49,175.56a.25.25,0,0,1-.14,0l-13.22-7.63a.29.29,0,0,1-.1-.39.28.28,0,0,1,.39-.1L256.64,175a.28.28,0,0,1-.15.53Z" style="fill:#ebebeb"></path><path d="M258.09,174.63a.35.35,0,0,1-.14,0L244.73,167a.28.28,0,0,1-.1-.38.28.28,0,0,1,.39-.11l13.22,7.63a.29.29,0,0,1,.1.39A.29.29,0,0,1,258.09,174.63Z" style="fill:#ebebeb"></path><path d="M237.26,186.65a.23.23,0,0,1-.14,0l-14-8.09a.28.28,0,0,1-.1-.38.28.28,0,0,1,.39-.11l14,8.09a.28.28,0,0,1,.1.39A.27.27,0,0,1,237.26,186.65Z" style="fill:#0D6EFD"></path><g style="opacity:0.25"><path d="M230.59,176.84a1.89,1.89,0,0,0,.67-.7.84.84,0,0,1,.3-.07c.39.06.06.21,0,.35a.07.07,0,0,0,.08.09c.27,0,.92-.21.74.23a.06.06,0,0,0,0,.08c.09,0,.46.08.42.17a.06.06,0,0,0,.05.08c.29,0,.57,0,.86,0,0,0,.37,0,.39,0s-.06.32-.1.39a.07.07,0,0,0,0,.1c.14.07.26.15.16.31a.05.05,0,0,0,0,.09c.36.11,1-.2,1.12.24.07.27,0,.33.36.3.06,0,.1-.12,0-.12-.36,0-.1-.4-.3-.54s-.68.13-.9,0,0-.15-.09-.31-.13,0-.15-.06-.05-.06-.06-.06,0,0,0-.1,0-.06,0-.11c.09-.41-.57-.31-.83-.33a3.82,3.82,0,0,1-.48,0s0-.1,0-.12-.39-.14-.39-.16.08-.15,0-.23-.56-.1-.73-.09h-.12a.15.15,0,0,0,.11-.12c0-.05,0-.08,0-.15s-.13-.14-.24-.15a.76.76,0,0,0-.35.07.62.62,0,0,0,.05-.37c-.09-.4-.54-.11-.78,0-.05,0-.07.14,0,.11a1.65,1.65,0,0,1,.51-.15c.21,0,.05.36-.07.56l-.26.13a1.15,1.15,0,0,0-.54.35C230.07,176.89,230.33,177,230.59,176.84Zm.14-.42.2-.11a.91.91,0,0,1-.34.36s-.28.11-.2,0A.71.71,0,0,1,230.73,176.42Z" style="fill:#455a64"></path><path d="M236.29,180a0,0,0,0,0,0,.06c.32.1.61-.27.72-.64.11,0,.36,0,.4.13l-.07.19a.06.06,0,0,0,.06.06c.17,0,.72-.2.63.1a.07.07,0,0,0,0,.07c.14.09.45-.07.49.15s-.19.19-.07.34.24,0,.35,0,.12-.09.19-.07,0,.07,0,.1,0,.09.08.11.11,0,.16,0,.07-.06.11-.06a.79.79,0,0,1,.22.06s.3.13.27.08-.14.23,0,.35.56,0,.68,0,.12-.13,0-.13l-.32,0c-.28-.12-.2-.2-.15-.34a.06.06,0,0,0-.06-.08c-.18,0-.31-.17-.45-.17a1.65,1.65,0,0,0-.22.09c-.22,0-.12-.07-.12-.22s0-.06-.08,0-.45.31-.45,0c0,0,.13-.12.14-.19s0-.17-.17-.2a.63.63,0,0,0-.27,0c-.35,0-.06,0-.17-.09a.36.36,0,0,0-.33-.11.82.82,0,0,1-.21,0c-.19,0-.07,0-.08-.13s.07-.14,0-.24-.15-.15-.3-.12a1.05,1.05,0,0,0-.3.1c0-.25,0-.46-.28-.45-.07,0-.13.12,0,.13s.17.23.12.42C236.59,179.54,236.31,179.79,236.29,180Zm.3-.23a.63.63,0,0,1,.22-.21.59.59,0,0,0,0,.08C236.74,179.72,236.53,180,236.59,179.8Z" style="fill:#455a64"></path><path d="M232.4,181.58a2.15,2.15,0,0,0,.67-.7.64.64,0,0,1,.3-.07c.39.05.06.2,0,.35a.06.06,0,0,0,.07.08c.27,0,.92-.2.75.24a.06.06,0,0,0,0,.08c.08,0,.45.07.41.16a.07.07,0,0,0,.06.09,8,8,0,0,1,.85,0,1.54,1.54,0,0,1,.39.05c.09.1,0,.32-.09.39a.07.07,0,0,0,0,.1c.14.06.25.15.16.3s0,.09,0,.1c.37.1,1-.2,1.13.24.06.27,0,.33.36.3.06,0,.1-.12,0-.12-.35,0-.09-.4-.29-.54s-.68.12-.9,0,0-.16-.09-.31-.13,0-.15-.07-.05-.05-.06-.05,0,0,0-.1,0-.07,0-.11c.09-.41-.57-.31-.83-.33a3.63,3.63,0,0,1-.48,0s0-.09,0-.11-.38-.14-.39-.16.09-.15,0-.24-.56-.09-.73-.09h-.13a.12.12,0,0,0,.11-.11.27.27,0,0,0,0-.16c0-.13-.14-.13-.25-.14a.84.84,0,0,0-.34.06.6.6,0,0,0,.05-.36c-.1-.41-.55-.11-.78,0-.06,0-.07.13,0,.11a1.79,1.79,0,0,1,.52-.15c.21,0,.05.36-.07.55l-.26.14a1.14,1.14,0,0,0-.54.34C231.88,181.62,232.14,181.71,232.4,181.58Zm.14-.43.2-.1a1,1,0,0,1-.34.36s-.28.1-.2,0A.86.86,0,0,1,232.54,181.15Z" style="fill:#455a64"></path><path d="M227.42,178.62a.07.07,0,0,0,0,.06c.31.1.6-.27.71-.63.12,0,.36-.05.41.13a1.71,1.71,0,0,0-.07.18s0,.06.06.07.71-.21.62.09a.08.08,0,0,0,0,.07c.14.1.45-.07.5.15s-.19.2-.08.34.25,0,.35,0,.12-.09.19-.07,0,.08,0,.11,0,.08.08.1.1,0,.15,0,.08-.06.12-.06a.83.83,0,0,1,.21.06s.3.14.27.08-.14.23,0,.36.55,0,.68,0,.11-.14,0-.14a2.79,2.79,0,0,1-.32,0c-.27-.11-.2-.2-.15-.33s0-.09-.05-.09-.31-.17-.45-.16-.2.08-.23.08c-.22,0-.11-.07-.12-.22s0-.06-.08,0-.44.3-.45,0c0,0,.14-.12.15-.18s0-.18-.18-.21a.63.63,0,0,0-.27,0c-.34.05-.05,0-.17-.09s-.13-.11-.32-.1a1.8,1.8,0,0,1-.22,0c-.19-.05-.06,0-.07-.12s.07-.15,0-.24-.15-.16-.31-.13a1.75,1.75,0,0,0-.3.1c0-.25,0-.46-.28-.45-.06,0-.12.12,0,.13s.17.23.12.42C227.72,178.13,227.44,178.38,227.42,178.62Zm.3-.22a.89.89,0,0,1,.22-.22.19.19,0,0,1,0,.08C227.87,178.32,227.66,178.58,227.72,178.4Z" style="fill:#455a64"></path><path d="M240.35,171.44a2,2,0,0,0,.68-.69.62.62,0,0,1,.3-.07c.38,0,.06.2,0,.35a.07.07,0,0,0,.08.08c.27,0,.92-.2.74.23,0,0,0,.08,0,.08s.45.08.41.17a.05.05,0,0,0,0,.08,8.23,8.23,0,0,1,.86,0,2.23,2.23,0,0,1,.39,0c.08.11,0,.32-.09.4a.06.06,0,0,0,0,.09c.15.07.26.16.16.31s0,.09,0,.1c.37.1,1-.2,1.13.24.06.26,0,.33.35.3.06,0,.11-.12,0-.12-.35,0-.09-.41-.29-.54s-.69.12-.91,0,0-.15-.09-.31-.12,0-.14-.06-.06-.06-.07-.06a.16.16,0,0,0,0-.1c0-.07.05-.06.06-.1.08-.41-.57-.31-.84-.34a2.56,2.56,0,0,1-.48,0s0-.1,0-.11-.38-.15-.39-.16.09-.15,0-.24-.56-.1-.73-.09h-.12s.1,0,.11-.11,0-.09,0-.16-.14-.13-.25-.14a.74.74,0,0,0-.35.06.63.63,0,0,0,.06-.37c-.1-.4-.55-.11-.79,0,0,0-.07.13,0,.11s.39-.18.51-.15.06.36-.07.55l-.26.13a1.3,1.3,0,0,0-.54.35C239.84,171.49,240.1,171.58,240.35,171.44Zm.15-.42.2-.1a1,1,0,0,1-.34.36s-.29.1-.21,0A.87.87,0,0,1,240.5,171Z" style="fill:#455a64"></path><path d="M246.05,174.64a.07.07,0,0,0,0,.05c.31.1.6-.27.71-.63.12,0,.36-.05.41.13a1.71,1.71,0,0,0-.07.18s0,.06.06.07.71-.21.62.09a.08.08,0,0,0,0,.07c.14.1.45-.07.5.15s-.19.2-.08.34.25,0,.35,0,.12-.09.19-.07,0,.08,0,.11,0,.08.08.1.1,0,.15,0,.08-.06.12-.06a.83.83,0,0,1,.21.06s.3.14.27.09-.13.22,0,.35.55,0,.68,0,.11-.14,0-.14a2.79,2.79,0,0,1-.32,0c-.27-.11-.2-.2-.15-.33s0-.09-.05-.09-.31-.17-.45-.16-.2.08-.23.08c-.22,0-.11-.07-.12-.22s0-.06-.08,0-.44.3-.45,0c0,0,.14-.12.15-.18s0-.18-.18-.21a.63.63,0,0,0-.27,0c-.34,0-.05,0-.17-.09s-.13-.11-.32-.1a1.8,1.8,0,0,1-.22,0c-.19,0-.06,0-.07-.12s.07-.15,0-.24-.15-.16-.31-.13a1.75,1.75,0,0,0-.3.1c0-.25,0-.45-.28-.45-.06,0-.12.12,0,.13s.17.23.12.43C246.35,174.14,246.07,174.39,246.05,174.64Zm.3-.23a.89.89,0,0,1,.22-.22.19.19,0,0,1,0,.08C246.5,174.33,246.29,174.59,246.35,174.41Z" style="fill:#455a64"></path><path d="M242.16,176.18a2.07,2.07,0,0,0,.68-.7.6.6,0,0,1,.29-.07c.39.06.06.21,0,.35a.07.07,0,0,0,.08.09c.27,0,.92-.21.74.23a.06.06,0,0,0,0,.08c.08,0,.45.08.41.17a.06.06,0,0,0,.05.08,8.23,8.23,0,0,1,.86,0s.37,0,.39.05-.06.32-.1.39a.07.07,0,0,0,0,.1c.15.07.26.15.16.31a.06.06,0,0,0,0,.09c.37.11,1-.2,1.12.24.07.27,0,.33.36.3.06,0,.1-.12,0-.12-.36,0-.1-.4-.3-.54s-.68.13-.9,0,0-.15-.09-.31-.12,0-.15-.06,0-.06-.06-.06a.16.16,0,0,0,0-.1c0-.07,0-.06,0-.11.09-.41-.56-.31-.83-.33a3.82,3.82,0,0,1-.48,0s0-.1,0-.12-.38-.14-.39-.16.08-.15,0-.23-.56-.1-.73-.09h-.12s.1,0,.11-.12,0-.08,0-.15-.13-.14-.24-.15a.76.76,0,0,0-.35.07A.64.64,0,0,0,243,175c-.1-.4-.55-.11-.79,0-.05,0-.07.14,0,.11a1.73,1.73,0,0,1,.51-.15c.22,0,0,.36-.07.56l-.26.13a1.15,1.15,0,0,0-.54.35C241.64,176.23,241.9,176.31,242.16,176.18Zm.14-.42.21-.11a.91.91,0,0,1-.34.36s-.29.1-.21,0A.76.76,0,0,1,242.3,175.76Z" style="fill:#455a64"></path><path d="M237.18,173.23s0,.05,0,.05c.32.1.61-.27.72-.63.11,0,.36-.05.4.13l-.07.19s0,.05.06.06.71-.2.63.1a0,0,0,0,0,0,.06c.14.1.45-.07.49.15s-.19.2-.07.34.24,0,.34,0,.13-.09.2-.06,0,.07,0,.1,0,.08.08.1.11,0,.16,0,.07-.06.11-.07a1.05,1.05,0,0,1,.21.06s.31.14.28.09-.14.22-.05.35.56,0,.68,0,.11-.14,0-.13l-.31,0c-.28-.12-.21-.2-.16-.34s0-.09-.05-.08-.31-.17-.45-.17-.2.08-.23.08c-.21,0-.11-.06-.11-.21s0-.06-.08-.05-.45.3-.46,0c0,0,.14-.13.15-.19s-.05-.18-.17-.21a.77.77,0,0,0-.27,0c-.35.06-.06,0-.18-.09s-.13-.11-.32-.1-.17,0-.22,0-.06,0-.07-.12.07-.15,0-.24-.15-.15-.31-.13a1.83,1.83,0,0,0-.29.11c0-.25,0-.46-.29-.45-.06,0-.12.11,0,.12s.17.24.12.43C237.49,172.74,237.2,173,237.18,173.23Zm.31-.23c0-.05.11-.14.22-.22l0,.09S237.42,173.18,237.49,173Z" style="fill:#455a64"></path><path d="M241.16,179.44a2,2,0,0,0,.67-.7.64.64,0,0,1,.3-.07c.39.06.06.2,0,.35a.07.07,0,0,0,.07.09c.27-.05.92-.21.75.23a.06.06,0,0,0,0,.08c.09,0,.45.08.41.17a.07.07,0,0,0,.06.08,8,8,0,0,1,.85,0,2.18,2.18,0,0,1,.39,0c.09.1-.05.32-.09.39a.07.07,0,0,0,0,.1c.14.06.25.15.16.31s0,.08,0,.09c.37.1,1-.2,1.13.24.06.27,0,.33.36.3.06,0,.1-.12,0-.12-.35,0-.09-.4-.29-.54s-.68.13-.9,0,0-.16-.09-.31-.13,0-.15-.07,0-.05-.06-.05,0,0,0-.1,0-.06,0-.11c.09-.41-.57-.31-.83-.33a3.82,3.82,0,0,1-.48,0s0-.1,0-.12-.38-.14-.38-.16.08-.15,0-.23-.56-.1-.73-.09h-.13s.11,0,.12-.12,0-.08,0-.15-.13-.14-.25-.15a.72.72,0,0,0-.34.07.63.63,0,0,0,.05-.37c-.1-.4-.55-.11-.78,0-.06,0-.07.14,0,.11a1.79,1.79,0,0,1,.52-.15c.21,0,0,.36-.07.56l-.26.13a1.15,1.15,0,0,0-.54.35C240.64,179.49,240.9,179.57,241.16,179.44Zm.14-.42.2-.11a1,1,0,0,1-.34.36s-.28.1-.2,0A.71.71,0,0,1,241.3,179Z" style="fill:#455a64"></path><path d="M237,176.79a.07.07,0,0,0,0,.05c.32.1.61-.27.72-.63.11,0,.36-.05.4.13l-.07.18a.07.07,0,0,0,.06.07c.17,0,.72-.21.63.09a.06.06,0,0,0,0,.07c.14.1.45-.07.49.15s-.19.2-.07.34.24,0,.34,0,.13-.09.2-.07,0,.08,0,.11,0,.08.08.1.11,0,.16,0,.07-.06.11-.06a.65.65,0,0,1,.21.06s.31.14.28.09-.14.22-.05.35.56,0,.68,0,.11-.14,0-.14a2.91,2.91,0,0,1-.31,0c-.28-.11-.21-.2-.15-.33s0-.09-.06-.09-.31-.17-.45-.16a1.77,1.77,0,0,0-.22.08c-.22,0-.12-.07-.12-.22a.05.05,0,0,0-.08,0c-.12,0-.45.3-.45,0,0,0,.13-.12.14-.18s-.05-.18-.17-.21a.77.77,0,0,0-.27,0c-.35,0-.06,0-.18-.09s-.13-.11-.32-.1a1.64,1.64,0,0,1-.22,0c-.18,0-.06,0-.07-.12s.07-.15,0-.24-.15-.16-.31-.13a1.68,1.68,0,0,0-.29.1c0-.25,0-.45-.28-.45-.07,0-.13.12,0,.13s.17.23.12.43C237.33,176.29,237.05,176.54,237,176.79Zm.31-.23c0-.05.11-.14.22-.22a.56.56,0,0,1,0,.08C237.48,176.48,237.27,176.74,237.33,176.56Z" style="fill:#455a64"></path><path d="M234,173.73a1,1,0,0,1,0,.39s0,0,.06.06.71-.2.63.1a0,0,0,0,0,0,.06c.14.1.45-.06.49.15s-.19.2-.08.34.25,0,.35,0,.13-.09.2-.06,0,.07,0,.1,0,.08.08.1.1,0,.16,0,.07-.06.11-.07a1.05,1.05,0,0,1,.21.06s.3.14.27.09-.13.22,0,.35.55,0,.68,0,.11-.13,0-.13l-.32,0c-.27-.12-.2-.2-.15-.34s0-.09,0-.08-.31-.17-.45-.17-.2.09-.23.08c-.22,0-.11-.06-.12-.21a.05.05,0,0,0-.07-.05c-.13,0-.45.3-.46,0,0,0,.14-.13.15-.19s-.05-.18-.18-.2-.18,0-.27,0c-.34.06,0,0-.17-.09a.33.33,0,0,0-.32-.1c-.06,0-.17,0-.22,0s-.06,0-.07-.12.07-.15,0-.24-.25-.25-.3-.07a.22.22,0,0,0,0,.08Z" style="fill:#455a64"></path></g></g><g id="freepik--Keyboard--inject-5"><path id="freepik--shadow--inject-5" d="M345.69,227.54,331.06,236a1.82,1.82,0,0,1-1.64,0L286.2,211.09a.5.5,0,0,1,0-1l14.63-8.47a1.8,1.8,0,0,1,1.63,0l43.23,24.92C346.14,226.85,346.14,227.27,345.69,227.54Z" style="opacity:0.05"></path><g id="freepik--keyboard--inject-5"><path d="M287.08,208.64a.59.59,0,0,1,.34-.47l13.75-7.94a1.82,1.82,0,0,1,1.64,0l41.93,24.25a.59.59,0,0,1,.34.48v1.44a.57.57,0,0,1-.34.47L331,234.81a1.79,1.79,0,0,1-1.64,0l-41.94-24.21a.59.59,0,0,1-.34-.47Z" style="fill:#ebebeb"></path><path d="M331,233.33l13.74-7.9c.46-.26.46-.68,0-1l-41.93-24.25a1.82,1.82,0,0,0-1.64,0l-13.75,7.94a.5.5,0,0,0,0,.94l41.94,24.22A1.82,1.82,0,0,0,331,233.33Z" style="fill:#fff"></path><path d="M330.24,233.52V235a1.75,1.75,0,0,0,.77-.19l13.73-7.94a.57.57,0,0,0,.34-.47V225a.57.57,0,0,1-.34.47L331,233.33A1.63,1.63,0,0,1,330.24,233.52Z" style="fill:#e0e0e0"></path><path d="M342.45,224.93v0l-1.36.79-1.84-1.07,1.36-.81,1.85,1.06Zm-2.13,1.23v0L339,227l-1.45-.84,1.37-.81,1.45.83Zm-.45-2.71a0,0,0,0,1,0,0l-1.36.79-1.45-.84,1.37-.81,1.45.84Zm-1.68,3.94a0,0,0,0,1,0,0l-1.36.79-2.34-1.36,1.37-.81,2.34,1.35Zm-.05-2.49v0l-1.36.79-1.15-.67,1.37-.81,1.15.66Zm-.45-2.71h0l-1.36.79-1.45-.84,1.37-.81,1.45.84Zm-1.43,1.63a0,0,0,0,1,0,0l-1.36.79-1.16-.67,1.37-.81,1.15.67Zm-.2,4.8s0,0,0,0l-1.36.79-1.84-1.07,1.37-.81,1.84,1.06Zm-.55-7.69h0l-1.36.79-10.47-6,1.37-.81,10.47,6Zm-.39,4.69v0l-1.36.78-1.15-.66,1.37-.82,1.14.67Zm-.75-2.89s0,0,0,0l-1.36.78-1.15-.66,1.37-.81,1.15.66Zm-.44,7.12s0,0,0,0l-1.36.79-1.15-.67,1.37-.81,1.15.66Zm-.45-2.72s0,0,0,0l-1.36.79-1.15-.67,1.37-.81,1.15.66Zm-.25-2.6s0,0,0,0l-1.36.78-1.15-.66,1.37-.81,1.15.66Zm-.74-2.89a0,0,0,0,1,0,0l-1.36.78-1.15-.66,1.37-.81,1.14.66Zm-.44,7.12a0,0,0,0,1,0,0l-1.36.79-1.15-.67,1.37-.81,1.15.66Zm-.45-2.71h0l-1.36.79-1.15-.67,1.37-.81,1.15.67Zm-.25-2.61v0l-1.36.79-1.15-.67,1.37-.81,1.15.66Zm0,7.9v0l-1.36.79-1.45-.84,1.37-.81,1.45.83Zm-.75-10.79s0,0,0,0l-1.36.79-1.15-.67,1.37-.81,1.15.66Zm-.44,7.13h0l-1.36.79-1.15-.67L329,227l1.15.67Zm-.44-2.72v0l-1.36.78-1.16-.66,1.37-.82,1.15.67Zm-.26-2.61s0,0,0,0l-1.35.79-1.16-.67,1.37-.81,1.15.67Zm-.74-2.88h0l-1.36.79-1.15-.67,1.37-.81,1.15.67Zm-.37,10.14v0l-1.36.78-1.15-.66,1.37-.81,1.14.66Zm-.07-3s0,0,0,0l-1.36.78-1.15-.66,1.37-.82,1.15.67Zm-.45-2.72s0,0,0,0l-1.36.78-1.15-.66,1.37-.81,1.15.66Zm-.25-2.6v0l-1.36.78-1.15-.66,1.37-.82,1.15.67Zm-.74-2.89,0,0-1.36.78-1.15-.66,1.37-.82,1.15.67Zm-.38,10.14s0,0,0,0l-1.36.79-1.15-.67,1.37-.81,1.15.66Zm-.06-3v0l-1.36.78-1.15-.66,1.37-.81,1.14.66Zm-.45-2.72v0l-1.36.79-1.15-.67,1.37-.81,1.15.66Zm-.25-2.6v0l-1.36.78-1.15-.66,1.37-.81,1.14.66Zm-.75-2.89a0,0,0,0,1,0,0l-1.36.78-1.15-.66,1.37-.81,1.15.66Zm-.37,10.15h0l-1.36.79-1.15-.67,1.37-.81,1.15.67Zm-.07-3s0,0,0,0l-1.36.79-1.15-.67,1.37-.81,1.15.66Zm-.21-9.95v0l-1.36.78-1.44-.84,1.36-.81,1.45.84Zm-.24,7.23s0,0,0,0l-1.36.79-1.15-.67,1.37-.81,1.15.67Zm-.25-2.6s0,0,0,0l-1.36.78-1.15-.66,1.37-.81,1.15.66Zm-.74-2.89a0,0,0,0,1,0,0l-1.36.79-1.15-.67,1.37-.81,1.14.66Zm-.38,10.15v0l-1.36.78-1.16-.66,1.37-.82,1.15.67Zm-.06-3a0,0,0,0,1,0,0l-1.36.79-1.15-.67,1.37-.81,1.15.67Zm-.45-2.71v0l-1.36.78-1.15-.66,1.37-.82,1.15.67Zm-.06-7.41s0,0,0,0l-1.36.78-1.45-.84,1.37-.81,1.45.84Zm-.19,4.8v0l-1.36.79-1.15-.67,1.37-.81,1.15.66Zm-.75-2.89s0,0,0,0l-1.36.79-1.15-.67,1.37-.81,1.15.66Zm-.44,7.13v0l-1.37.78-1.15-.66,1.37-.82,1.15.67Zm-.44-2.72v0l-1.36.78-1.16-.66,1.37-.81,1.15.66Zm-.25-2.6a0,0,0,0,1,0,0l-1.37.79-1.15-.67,1.37-.81,1.15.67Zm-.06,7.87a0,0,0,0,1,0,0l-1.36.79-1.15-.66,1.37-.82,1.15.67Zm-.05-12.85s0,0,0,0l-1.36.78-1.45-.84,1.37-.81,1.45.84ZM319.3,214h0l-1.36.79-1.15-.67,1.37-.81,1.15.67Zm-.44,7.12v0l-1.36.78-1.15-.66,1.37-.81,1.15.66Zm-.45-2.72v0l-1.36.79-1.15-.67,1.37-.81,1.15.66Zm-.25-2.6v0l-1.36.78-1.15-.66,1.37-.82,1.15.67Zm-.05,7.87a0,0,0,0,1,0,0l-1.36.78-1.15-.66L317,223l1.14.66Zm-.35-13v0l-1.36.78-1.85-1.06,1.37-.82,1.85,1.07Zm-.34,2.26,0,0-1.36.78-3.63-2.09,1.37-.82,3.63,2.1Zm-.44,7.12v0l-1.36.79-1.15-.67,1.36-.81,1.15.66Zm-.45-2.72v0l-1.36.79-1.15-.67,1.37-.81,1.14.66Zm-.25-2.6v0l-1.36.78-1.15-.66,1.37-.81,1.14.66Zm-.06,7.87s0,0,0,0l-1.36.78-1.15-.66,1.37-.81,1.15.66ZM315.09,219s0,0,0,0l-1.36.79-1.15-.67,1.37-.81,1.15.66Zm-.31-10v0l-1.37.78-1.15-.66,1.37-.81,1.15.66Zm-.14,7.3s0,0,0,0l-1.36.79-1.15-.67,1.37-.81,1.15.67Zm-.25-2.61s0,0,0,0l-1.36.79-1-.61a.74.74,0,0,0-.33-.07.83.83,0,0,0-.35.07l-1.78,1-1.35-.78,3.49-2,2.74,1.58Zm-.05,7.87v0l-1.36.79-1.15-.67,1.37-.81,1.15.66Zm-1.13-3.63a0,0,0,0,1,0,0l-1.36.79-1.15-.67,1.37-.81,1.15.67Zm-.31-10v0l-1.36.79-1.15-.67,1.37-.81,1.15.66Zm-.14,7.3s0,0,0,0l-1.36.78-1.15-.66,1.37-.82,1.15.67ZM311.63,220v0l-1.36.79-1.16-.67,1.37-.81,1.15.66Zm-.31-3.16v0l-1.36.78-1.15-.66,1.37-.81,1.15.66Zm-.3-10a0,0,0,0,1,0,0l-1.36.79-1.15-.67,1.36-.81,1.15.67Zm-.25,2.31a0,0,0,0,1,0,0l-1.36.79-1.15-.67,1.37-.81,1.15.66Zm-1,9.77v0l-1.36.79-1.15-.67,1.37-.81,1.15.66Zm-.31-3.16v0l-1.36.78-2-1.18,1.37-.81,2,1.18Zm-.7-10.24s0,0,0,0l-1.36.78-3-1.75,1.37-.81,3,1.75Zm-.34,7.18v0l-1.36.78-1.16-.66,1.37-.81,1.15.66Zm-.53,5.14a0,0,0,0,1,0,0l-1.36.79-1.15-.66,1.36-.82,1.15.67Zm-1.26-11.09s0,0,0,0l-1.36.78-1.16-.66,1.37-.82,1.15.67Zm-.1,4.86s0,0,0,0l-1.36.78L304,211.7l1.37-.81,1.15.66Zm-.24,2.32v0l-1.36.78-1.15-.66,1.36-.81,1.15.66ZM306,216.7s0,0,0,0l-1.36.78-1.15-.66,1.37-.81,1.15.66Zm-1-13.41a0,0,0,0,1,0,0l-1.36.79-1.15-.67,1.37-.81,1.15.66Zm-.25,2.32s0,0,0,0l-1.36.78-1.15-.66,1.37-.81,1.15.66Zm-.09,4.86v0l-1.36.79-1.15-.67,1.37-.81,1.15.66Zm-.15-2.54v0l-1.36.78-1.15-.66,1.36-.82,1.15.67Zm-.1,4.86s0,0,0,0l-1.36.78-1.15-.66,1.37-.81,1.15.66Zm-.7,2.58s0,0,0,0l-1.36.78-1.15-.66,1.37-.81,1.15.66Zm-.6-13.16h0l-3.49,2-1.15-.67,3.5-2,1.15.67Zm-.24,2.31v0l-1.36.79-1.15-.67,1.37-.81,1.15.66Zm-.25,2.32s0,0,0,0l-1.36.78-1.15-.66,1.37-.81,1.15.66Zm-.09,4.86a0,0,0,0,1,0,0l-1.36.79-1.15-.67,1.37-.81,1.15.66Zm-.15-2.54h0L301,210l-1.15-.66,1.37-.82,1.14.67Zm-.55,5.12v0l-1.36.79-1.15-.67,1.37-.81,1.15.66Zm-1.09-8.53v0l-1.36.79-1.15-.67,1.37-.81,1.15.66Zm-.25,2.32s0,0,0,0l-1.36.78-1.15-.66,1.37-.81,1.15.66Zm-.24,2.32a0,0,0,0,1,0,0l-1.36.79-1.15-.66,1.37-.82,1.15.67Zm-.31,2.81a0,0,0,0,1,0,0l-1.36.79-1.15-.67,1.37-.81,1.15.67Zm-1.09-8.54s0,0,0,0l-3.48,2-1.16-.67,3.5-2,1.15.66Zm-.24,2.32a0,0,0,0,1,0,0l-1.36.79-1.15-.67,1.37-.81,1.15.66Zm-.25,2.32v0l-1.36.78-1.15-.66,1.37-.81,1.15.66Zm-1.24,2.89v0l-.58.34-1.15-.66.59-.37,1.14.66Zm-.64-4v0l-1.36.78-1.15-.66,1.37-.81,1.15.66Zm-1.25,2.9v0l-.57.34-1.16-.67.59-.36,1.15.66Zm-.63-4v0l-1.36.79-1.16-.67,1.37-.81,1.15.66Zm-1.25,2.9v0l-.58.34-1.15-.67.59-.36,1.15.66Zm-1.88-1.09,0,0-.57.34-1.15-.66.59-.37,1.14.66Z" style="fill:#455a64"></path></g></g><g id="freepik--Monitor--inject-5"><path d="M305.88,255.81a2.53,2.53,0,0,1-2.29,0L239.38,218.7a2.61,2.61,0,0,1-1.18-2V160.44a2.22,2.22,0,0,1,3.4-2l64.21,37.07a2.63,2.63,0,0,1,1.18,2v56.2A2.51,2.51,0,0,1,305.88,255.81Z" style="fill:#455a64"></path><path d="M304.77,248.76h0V198.88a2.63,2.63,0,0,0-1.18-2l-64.21-37.07c-.66-.38-1.19-.07-1.19.68v56.21a2.61,2.61,0,0,0,.73,1.67,1.78,1.78,0,0,0,.46.37l64.21,37.08a1.33,1.33,0,0,0,.46.16.69.69,0,0,0,.38-.08.84.84,0,0,0,.34-.77Z" style="fill:#37474f"></path><path d="M306.64,196.43l-2.21,1.28a2.46,2.46,0,0,1,.34,1.17v56.21c0,.68-.43,1-1,.77A2.22,2.22,0,0,0,307,253.8V197.6A2.36,2.36,0,0,0,306.64,196.43Z" style="fill:#263238"></path><polygon points="270.28 209.79 270.28 244.08 272.59 242.74 272.59 208.46 270.28 209.79" style="fill:#f0f0f0"></polygon><polygon points="270.28 209.79 263.34 205.79 263.34 240.07 270.28 244.08 270.28 209.79" style="fill:#e0e0e0"></polygon><polygon points="263.34 205.79 265.65 204.45 272.59 208.46 270.28 209.79 263.34 205.79" style="fill:#fafafa"></polygon></g><path d="M175.72,199.47l-2.57-23.87,2.57-1.53,131.23,76c4.1,2.36,7.84,8.07,7.84,12.8v17.29l-2.57,1.48v-3.05Z" style="fill:#0D6EFD"></path><path d="M175.72,199.47l-2.57-23.87,2.57-1.53,131.23,76c4.1,2.36,7.84,8.07,7.84,12.8v17.29l-2.57,1.48v-3.05Z" style="fill:#fff;opacity:0.7000000000000001"></path><path d="M173.15,201V175.6l131.23,76c4.1,2.36,7.84,8.07,7.84,12.8v17.23Z" style="fill:#0D6EFD"></path><path d="M173.15,201V175.6l131.23,76c4.1,2.36,7.84,8.07,7.84,12.8v17.23Z" style="fill:#fff;opacity:0.6000000000000001"></path><g id="freepik--black-post--inject-5"><polygon points="288.13 243.64 288.13 258.46 275.85 251.37 275.85 236.55 288.13 243.64" style="opacity:0.1"></polygon><path d="M274.44,252.1l8.16,4.57c.91.5,1.5-1,1.51-1.85.91.58,2.78,1,2.87-.22l.65-8.44-12.27-7.09Z" style="fill:#455a64"></path><polygon points="275.36 239.07 287.63 246.16 287.63 243.89 275.36 236.8 275.36 239.07" style="fill:#37474f"></polygon><polygon points="286.59 255.22 283.23 256.71 284.28 253.97 286.59 255.22" style="fill:#37474f"></polygon><path d="M277.5,246.19c.89.07,3.6-1.25,3-2.46-.73-1.45-3,1.54-3.28,2-.52.95-1.58,3.12-.59,4.1,1.55,1.52,3.71-1.67,4.38-2.7.08-.13-.06-.51-.24-.36-.67.51-2.28,2.55-1.56,3.46s2.16-1.11,2.62-1.58l-.27-.33c-.09.44-.63,1.43-.16,1.84.68.6,1.4-.74,1.57-1.21l-.28-.2a2.7,2.7,0,0,0,.29,2.4c.81.81,1.76,0,2.26-.68.06-.09,0-.45-.15-.33-.54.43-1.52,1.65-2.22-.07a2.61,2.61,0,0,1,.11-1.17c0-.15-.2-.43-.28-.2-.14.42-.83,1.33-1,.52a4.87,4.87,0,0,1,.21-.65c0-.11-.1-.5-.27-.33-.4.4-1,1.45-1.5,1.56-1.45.3.4-2.27.87-2.63l-.24-.37a7.89,7.89,0,0,1-2.23,2.57c-1.08.65-1.88.27-1.92-1a4.5,4.5,0,0,1,.5-1.65c.31-.74,1.58-3.25,2.58-2.92,1.37.44-1.63,2.11-2.15,2.17-.07,0-.09.19,0,.19Z" style="fill:#fff"></path></g><g id="freepik--green-post--inject-5"><polygon points="304.16 258.28 304.16 273.1 291.89 266.01 291.89 251.19 304.16 258.28" style="opacity:0.1"></polygon><path d="M290.48,266.74l8.15,4.57c.91.5,1.51-1,1.52-1.85.91.58,2.77,1,2.87-.22l.65-8.44-12.28-7.09Z" style="fill:#0D6EFD"></path><path d="M290.48,266.74l8.15,4.57c.91.5,1.51-1,1.52-1.85.91.58,2.77,1,2.87-.22l.65-8.44-12.28-7.09Z" style="opacity:0.2"></path><polygon points="291.39 253.71 303.67 260.8 303.67 258.53 291.39 251.44 291.39 253.71" style="fill:#0D6EFD"></polygon><polygon points="291.39 253.71 303.67 260.8 303.67 258.53 291.39 251.44 291.39 253.71" style="opacity:0.35000000000000003"></polygon><polygon points="302.63 269.86 299.27 271.35 300.32 268.61 302.63 269.86" style="fill:#0D6EFD"></polygon><polygon points="302.63 269.86 299.27 271.35 300.32 268.61 302.63 269.86" style="opacity:0.35000000000000003"></polygon><path d="M293.24,258.28a19.78,19.78,0,0,1-1,2.44c-.14.33-.62,1.49.07,1.61.2,0,.87-1.92,1-2.23a2.48,2.48,0,0,0,.16-1.81c0-.13-.19-.16-.23,0Z" style="fill:#fff"></path><path d="M294.77,258.73a11.22,11.22,0,0,1-.61,1.77,2.92,2.92,0,0,0-.45,1.58c0,.17.33.48.49.25a9.32,9.32,0,0,0,.8-1.86,2.54,2.54,0,0,0,.23-1.53c0-.15-.36-.53-.46-.21Z" style="fill:#fff"></path><path d="M296.34,260.38c.27,0,.14-.51-.1-.51s-.14.51.1.51Z" style="fill:#fff"></path><path d="M295.34,262.85c.28,0,.12-.54-.14-.54s-.12.54.14.54Z" style="fill:#fff"></path><path d="M298.51,260c-.95.36-2.22,1.57-2.16,2.69s1.25,1.21,2,.74a3.11,3.11,0,0,0,1.35-2.16,1.25,1.25,0,0,0-1.33-1.45c-.26,0-.14.45.07.48.75.1.67.6.43,1.18a3,3,0,0,1-.83,1.18,1.36,1.36,0,0,1-.57.3c-.47.1-.46-.19-.33-.55a3.48,3.48,0,0,1,1.7-1.88c.27-.13,0-.64-.33-.53Z" style="fill:#fff"></path><path d="M301.15,261.15c-.71.05-1.47,1-1.71,1.58a1.45,1.45,0,0,0,.8,1.86,1.56,1.56,0,0,0,2.07-1,2.45,2.45,0,0,0-.61-2.63c-.15-.14-.32,0-.28.17.12.63.5,1.11.37,1.79s-.86,1.61-1.6,1c-1-.75.85-1.88,1.14-2.43.06-.11,0-.33-.18-.32Z" style="fill:#fff"></path><path d="M292.76,265c-1,1.91,2.25,1,3,.6l-.32-.43c-1.13,2.05.64,2.87,2.17,1.32l-.46-.26c.29,1.85,3,2,3.72.35.05-.09,0-.42-.2-.3-.6.48-2.77,1.68-3,0,0-.19-.27-.44-.45-.26-.41.41-1,1.11-1.46.46-.3-.45-.14-.52.1-1,.08-.17-.12-.55-.33-.43s-2.69,1.06-2.45.2c0-.13-.15-.51-.27-.29Z" style="fill:#fff"></path></g><g id="freepik--Folder--inject-5"><polygon points="256.39 277.62 222.47 297.2 249.54 312.82 283.36 293.3 256.39 277.62" style="opacity:0.05"></polygon><path d="M280.15,290.9a.57.57,0,0,0,0-1.07l-26.06-15.14-33.91,19.58,26.14,15.09a2,2,0,0,0,1.85,0l19.37-11.18,3.24.61a.84.84,0,0,0,.6-.1l8-4.63a.88.88,0,0,0,.3-1.25l-.85-1.17Z" style="fill:#0D6EFD"></path><path d="M280.15,290.9a.57.57,0,0,0,0-1.07l-26.06-15.14-33.91,19.58,26.14,15.09a2,2,0,0,0,1.85,0l19.37-11.18,3.24.61a.84.84,0,0,0,.6-.1l8-4.63a.88.88,0,0,0,.3-1.25l-.85-1.17Z" style="opacity:0.15"></path><polygon points="254.09 274.69 221.33 293.61 247.24 308.58 281.07 289.05 254.09 274.69" style="fill:#f0eaf1"></polygon><path d="M220.18,294.27l26.1,12.12a2.31,2.31,0,0,0,1.89-.08l32-18.46c.51-.3.49-.74,0-1l-26-12.17Z" style="fill:#0D6EFD"></path></g><g id="freepik--Files--inject-5"><path d="M171.24,167.42a.51.51,0,0,1,.5,0l.54.31L172,202.52a1.59,1.59,0,0,1-.71,1.23L144,219.49V183.16Z" style="fill:#0D6EFD"></path><path d="M171.24,167.42a.51.51,0,0,1,.5,0l.54.31L172,202.52a1.59,1.59,0,0,1-.71,1.23L144,219.49V183.16Z" style="opacity:0.2"></path><path d="M171.77,167.72c.39-.22.71,0,.71.41v34.7a1.55,1.55,0,0,1-.71,1.22L144.5,219.8V183.46Z" style="fill:#0D6EFD"></path><path d="M171.77,167.72c.39-.22.71,0,.71.41v34.7a1.55,1.55,0,0,1-.71,1.22L144.5,219.8V183.46Z" style="opacity:0.5"></path><path d="M151.2,216.42l20.19-11.66a1.56,1.56,0,0,0,.7-1.23v-32l2.64-1.51L172,168.47l0,0c-.12-.18-.34-.22-.6-.07l-23.12,13.35v36.34l2.94,1.7Z" style="fill:#ebebeb"></path><path d="M174.33,170.13c.39-.23.71,0,.71.41v34.69a1.59,1.59,0,0,1-.71,1.23L151.2,219.82V183.48Z" style="fill:#fafafa"></path><polygon points="151.21 183.48 148.27 181.78 148.26 218.12 151.2 219.82 151.21 183.48" style="fill:#e6e6e6"></polygon><path d="M152.18,184.47a.65.65,0,0,1,0-.27.86.86,0,0,1,.21-.36l.11-.09c.21-.12.38,0,.38.28a1,1,0,0,1-.1.38.79.79,0,0,1-.28.34l-.05,0C152.31,184.85,152.17,184.73,152.18,184.47Z" style="fill:#263238"></path><path d="M152,186.23a2.06,2.06,0,0,0,.75-.71,1.25,1.25,0,0,0,.09-1.11,1.33,1.33,0,0,0-.39-.57.86.86,0,0,0-.21.36.89.89,0,0,1,.27.57,1.16,1.16,0,0,1-.71,1.1,3.84,3.84,0,0,1-3.49,0,1.06,1.06,0,0,1,0-2v-.46l-.18.1a2,2,0,0,0-.74.7h0a1.26,1.26,0,0,0-.08,1.12,1.87,1.87,0,0,0,.83.9A4.26,4.26,0,0,0,152,186.23Z" style="fill:#263238"></path><path d="M151.38,187l25.06-16.87-.39-.22a.78.78,0,0,0-.7,0l-24.5,16.79Z" style="fill:#0D6EFD"></path><path d="M151.38,187l25.06-16.87-.39-.22a.78.78,0,0,0-.7,0l-24.5,16.79Z" style="opacity:0.2"></path><path d="M175.94,170.13c.39-.22.71,0,.71.41v34.7a1.57,1.57,0,0,1-.71,1.22l-25,17.07V187.19Z" style="fill:#0D6EFD"></path><polygon points="143.98 183.16 143.97 219.49 150.97 223.53 150.97 187.19 143.98 183.16" style="fill:#0D6EFD"></polygon><polygon points="143.98 183.16 143.97 219.49 150.97 223.53 150.97 187.19 143.98 183.16" style="opacity:0.1"></polygon><path d="M145.37,191.13a1.26,1.26,0,0,1,.93-.64,1.86,1.86,0,0,1,1.19.27,4.26,4.26,0,0,1,1.95,3.39,2,2,0,0,1-.23,1,1.46,1.46,0,0,1-2.13.37,4.27,4.27,0,0,1-2-3.38,2,2,0,0,1,.24-1Z" style="fill:#455a64"></path><path d="M147.29,191.12c-1-.56-1.75-.11-1.75,1a3.84,3.84,0,0,0,1.75,3c1,.56,1.75.11,1.75-1A3.86,3.86,0,0,0,147.29,191.12Z" style="fill:#f5f5f5"></path><path d="M147.63,198.64l-.53-.31c-1.06-.61-1.92-.11-1.92,1.11v15.75a4.26,4.26,0,0,0,1.92,3.33l.53.3c1.06.61,1.92.12,1.92-1.11V202A4.24,4.24,0,0,0,147.63,198.64Z" style="fill:#f5f5f5"></path><polygon points="144.4 182.91 151.36 186.93 150.97 187.19 143.98 183.16 144.4 182.91" style="fill:#0D6EFD"></polygon><polygon points="144.4 182.91 151.36 186.93 150.97 187.19 143.98 183.16 144.4 182.91" style="opacity:0.2"></polygon><path d="M152.63,224.15a.64.64,0,0,1-.27-.51V188a.69.69,0,0,1,.31-.53l25.94-16.95.53.3v36.33l-26,17A.67.67,0,0,1,152.63,224.15Z" style="fill:#0D6EFD"></path><path d="M153,188l-.53-.31a.91.91,0,0,0-.09.31v35.62a.66.66,0,0,0,.26.51.69.69,0,0,0,.58,0c-.17.09-.3,0-.3-.18V188.32A.69.69,0,0,1,153,188Z" style="opacity:0.1"></path><path d="M179.15,170.83l-25.94,17a.68.68,0,0,0-.31.53V224c0,.19.13.27.3.18l26-17Z" style="opacity:0.5"></path><path d="M179.15,170.83l-.53-.3-25.94,16.95a.69.69,0,0,0-.22.23l.53.31a.69.69,0,0,1,.22-.23Z" style="opacity:0.2"></path><polygon points="178.73 171.07 178.72 207.41 185.72 211.45 185.65 175.07 178.73 171.07" style="fill:#0D6EFD"></polygon><polygon points="178.73 171.07 178.72 207.41 185.72 211.45 185.65 175.07 178.73 171.07" style="opacity:0.7000000000000001"></polygon><path d="M156.58,226a.79.79,0,0,1-.76,0l-1.42-.81a.87.87,0,0,1-.39-.67l0-35.45a.84.84,0,0,1,.38-.66l22.7-14,2.19,1.27V212Z" style="fill:#ebebeb"></path><path d="M179.3,212l-22.72,14c-.21.13-.38,0-.38-.22V190.32a.83.83,0,0,1,.39-.66l22.7-14Z" style="fill:#fafafa"></path><path d="M177.63,178.18a.86.86,0,0,1,.05-.27.78.78,0,0,1,.22-.36.39.39,0,0,1,.1-.08c.21-.13.38,0,.38.28a1.25,1.25,0,0,1-.09.37.71.71,0,0,1-.29.34l-.05,0C177.77,178.56,177.63,178.44,177.63,178.18Z" style="fill:#263238"></path><path d="M156.33,190l-2.19-1.27a.84.84,0,0,0-.12.39v35.44a.84.84,0,0,0,.39.66l1.42.82a.83.83,0,0,0,.66,0c-.16,0-.28-.06-.28-.27V190.33A.71.71,0,0,1,156.33,190Z" style="fill:#e6e6e6"></path><path d="M182.71,176.38a1.52,1.52,0,0,1-.87,1.32A5.44,5.44,0,0,1,178,178c.07-.18.16-.4.19-.49a5,5,0,0,0,3.42-.24,1.32,1.32,0,0,0,.5-.47.75.75,0,0,0,.11-.4c0-.49-.47-1-1.24-1.44a5.49,5.49,0,0,0-4.72-.26,1.3,1.3,0,0,0-.57.59l-.57.33v0a1.28,1.28,0,0,1,.18-.66,1.89,1.89,0,0,1,.7-.67,6,6,0,0,1,5.23.25A2.45,2.45,0,0,1,182.71,176.38Z" style="fill:#263238"></path><path d="M157.07,226.72a.64.64,0,0,1-.26-.51V190.58a.71.71,0,0,1,.3-.53l28.47-15.5.53.31v36.32l-28.47,15.51A.66.66,0,0,1,157.07,226.72Z" style="fill:#0D6EFD"></path><path d="M157.44,190.59l-.53-.31a.61.61,0,0,0-.09.31l0,35.62a.68.68,0,0,0,.27.51.66.66,0,0,0,.58,0c-.17.1-.31,0-.31-.17V190.89A.5.5,0,0,1,157.44,190.59Z" style="opacity:0.1"></path><path d="M186.12,174.86l-28.46,15.49a.57.57,0,0,0-.22.24.5.5,0,0,0-.09.3v35.63c0,.19.14.27.31.17l28.47-15.51Z" style="fill:#0D6EFD"></path><path d="M186.12,174.86l-.53-.31-28.46,15.5a.61.61,0,0,0-.22.23l.53.31a.57.57,0,0,1,.22-.24Z" style="opacity:0.2"></path><polygon points="179.15 170.83 186.11 174.85 185.65 175.07 178.73 171.07 179.15 170.83" style="fill:#0D6EFD"></polygon><polygon points="179.15 170.83 186.11 174.85 185.65 175.07 178.73 171.07 179.15 170.83" style="opacity:0.2"></polygon><path d="M185.73,175.78a.51.51,0,0,1,.5-.05l.54.32-.34,34.84a1.56,1.56,0,0,1-.7,1.22l-27.27,15.74V191.52Z" style="fill:#0D6EFD"></path><path d="M185.73,175.78a.51.51,0,0,1,.5-.05l.54.32-.34,34.84a1.56,1.56,0,0,1-.7,1.22l-27.27,15.74V191.52Z" style="opacity:0.2"></path><path d="M186.26,176.09c.39-.23.71,0,.71.41v34.69a1.57,1.57,0,0,1-.7,1.23L159,228.16V191.83Z" style="fill:#0D6EFD"></path><path d="M186.26,176.09c.39-.23.71,0,.71.41v34.69a1.57,1.57,0,0,1-.7,1.23L159,228.16V191.83Z" style="opacity:0.5"></path><path d="M165.69,224.78l20.18-11.66a1.55,1.55,0,0,0,.71-1.22v-32l2.64-1.51-2.69-1.56-.05,0a.42.42,0,0,0-.6-.07l-23.12,13.36v36.33l2.94,1.7Z" style="fill:#ebebeb"></path><path d="M188.82,178.49c.39-.22.7,0,.7.41v34.7a1.54,1.54,0,0,1-.7,1.22l-23.13,13.36V191.84Z" style="fill:#fafafa"></path><polygon points="165.7 191.84 162.76 190.15 162.75 226.48 165.69 228.18 165.7 191.84" style="fill:#e6e6e6"></polygon><path d="M166.66,192.83a.88.88,0,0,1,.06-.27.73.73,0,0,1,.21-.35.31.31,0,0,1,.11-.09c.2-.13.37,0,.37.28a.84.84,0,0,1-.09.37.75.75,0,0,1-.28.34l0,0C166.8,193.21,166.66,193.1,166.66,192.83Z" style="fill:#263238"></path><path d="M166.48,194.59a1.88,1.88,0,0,0,.74-.71,1.25,1.25,0,0,0,.1-1.11,1.46,1.46,0,0,0-.39-.56.73.73,0,0,0-.21.35,1,1,0,0,1,.27.57,1.17,1.17,0,0,1-.71,1.11,3.92,3.92,0,0,1-3.5,0c-1-.56-1-1.45,0-2v-.47l-.18.11a2,2,0,0,0-.75.7h0a1.3,1.3,0,0,0-.09,1.12,1.85,1.85,0,0,0,.84.9A4.26,4.26,0,0,0,166.48,194.59Z" style="fill:#263238"></path><path d="M165.87,195.32l25-16.88-.38-.22a.8.8,0,0,0-.71,0L165.33,195Z" style="fill:#0D6EFD"></path><path d="M165.87,195.32l25-16.88-.38-.22a.8.8,0,0,0-.71,0L165.33,195Z" style="opacity:0.2"></path><path d="M190.43,178.49c.39-.22.7,0,.7.41v34.7a1.54,1.54,0,0,1-.7,1.22l-25,17.07V195.56Z" style="fill:#0D6EFD"></path><polygon points="158.47 191.52 158.46 227.85 165.46 231.9 165.46 195.56 158.47 191.52" style="fill:#0D6EFD"></polygon><polygon points="158.47 191.52 158.46 227.85 165.46 231.9 165.46 195.56 158.47 191.52" style="opacity:0.1"></polygon><path d="M159.86,199.49a1.27,1.27,0,0,1,.92-.64,1.83,1.83,0,0,1,1.2.28,4.27,4.27,0,0,1,2,3.38,2,2,0,0,1-.24,1,1.45,1.45,0,0,1-2.12.36,4.27,4.27,0,0,1-1.95-3.38,2,2,0,0,1,.24-1Z" style="fill:#455a64"></path><path d="M161.77,199.48c-1-.56-1.74-.1-1.74,1a3.89,3.89,0,0,0,1.74,3c1,.56,1.75.1,1.75-1A3.85,3.85,0,0,0,161.77,199.48Z" style="fill:#f5f5f5"></path><path d="M162.12,207l-.53-.3c-1.06-.61-1.92-.12-1.92,1.11v15.75a4.24,4.24,0,0,0,1.92,3.32l.53.31c1.06.61,1.92.11,1.92-1.11V210.33A4.27,4.27,0,0,0,162.12,207Z" style="fill:#f5f5f5"></path><polygon points="158.89 191.27 165.85 195.29 165.46 195.56 158.47 191.52 158.89 191.27" style="fill:#0D6EFD"></polygon><polygon points="158.89 191.27 165.85 195.29 165.46 195.56 158.47 191.52 158.89 191.27" style="opacity:0.2"></polygon></g><g id="freepik--keyboard--inject-5"><path id="freepik--shadow--inject-5" d="M223.35,276.54,208.72,285a1.82,1.82,0,0,1-1.64,0l-43.22-24.92c-.46-.26-.46-.68,0-.94l14.63-8.47a1.77,1.77,0,0,1,1.63,0l43.23,24.92A.5.5,0,0,1,223.35,276.54Z" style="opacity:0.05"></path><g id="freepik--keyboard--inject-5"><path d="M164.74,257.64a.59.59,0,0,1,.34-.47l13.75-7.93a1.79,1.79,0,0,1,1.64,0l41.93,24.25a.57.57,0,0,1,.34.47v1.44a.57.57,0,0,1-.34.48l-13.73,7.93a1.84,1.84,0,0,1-1.65,0l-41.94-24.22a.59.59,0,0,1-.34-.47Z" style="fill:#ebebeb"></path><path d="M208.67,282.33l13.73-7.89c.46-.27.46-.69,0-.95l-41.93-24.25a1.79,1.79,0,0,0-1.64,0l-13.75,7.93a.5.5,0,0,0,0,.95L207,282.33A1.84,1.84,0,0,0,208.67,282.33Z" style="fill:#fff"></path><path d="M207.9,282.53V284a1.75,1.75,0,0,0,.77-.19l13.73-7.93a.57.57,0,0,0,.34-.47V274a.57.57,0,0,1-.34.47l-13.73,7.9A1.76,1.76,0,0,1,207.9,282.53Z" style="fill:#e0e0e0"></path><path d="M167.36,257.75s0,0,0,0l1.36-.78,1.84,1.06-1.37.81-1.84-1.06Zm2.13-1.23v0l1.36-.78,1.45.83-1.37.82-1.44-.84Zm.44,2.72v0l1.36-.79,1.45.84-1.37.81-1.44-.83Zm1.68-4v0l1.36-.78,2.35,1.35-1.37.81-2.34-1.35Zm.06,2.49s0,0,0,0L173,257l1.15.66-1.37.81-1.15-.66Zm.45,2.72s0,0,0,0l1.36-.79,1.44.84-1.36.81-1.45-.83Zm1.43-1.63v0l1.36-.79,1.15.67-1.37.81-1.15-.66Zm.19-4.81s0,0,0,0l1.36-.78,1.85,1.06-1.37.82-1.84-1.07Zm.56,7.7s0,0,0,0l1.36-.79L186.14,267l-1.37.81-10.47-6Zm.39-4.69v0l1.36-.79,1.15.67-1.37.81-1.15-.66Zm.75,2.88h0l1.36-.79,1.16.67-1.37.81-1.15-.67Zm.43-7.12s0,0,0,0l1.36-.78,1.15.66-1.36.82-1.15-.67Zm.45,2.72a0,0,0,0,1,0,0l1.36-.78,1.15.66-1.37.81-1.15-.66Zm.25,2.6h0l1.36-.79,1.15.66-1.37.82-1.14-.67Zm.75,2.89s0,0,0,0l1.36-.78,1.15.66-1.37.82-1.15-.67Zm.44-7.12s0,0,0,0l1.36-.78,1.15.66-1.37.81-1.15-.66Zm.45,2.72s0,0,0,0l1.36-.79,1.15.67-1.37.81-1.15-.66Zm.25,2.6v0l1.36-.78,1.15.66-1.37.81-1.15-.66Zm0-7.9s0,0,0,0l1.36-.78,1.45.83-1.37.82-1.45-.84Zm.74,10.79v0l1.36-.78,1.15.66-1.36.81-1.15-.66Zm.44-7.12v0l1.36-.79,1.15.67-1.37.81-1.15-.66Zm.45,2.72v0l1.36-.79,1.15.67-1.37.81-1.15-.67Zm.25,2.6v0l1.36-.78,1.15.66-1.37.81-1.15-.66Zm.75,2.89s0,0,0,0l1.36-.78,1.15.66-1.37.81-1.15-.66Zm.37-10.15v0l1.36-.78,1.15.66-1.37.82-1.15-.67Zm.07,3s0,0,0,0l1.36-.79,1.15.67-1.37.81-1.15-.67Zm.44,2.71h0l1.36-.79,1.16.66-1.37.82-1.15-.67Zm.25,2.61a0,0,0,0,1,0,0l1.36-.79,1.15.67-1.37.81-1.15-.66Zm.75,2.89v0l1.36-.79,1.15.67-1.37.81-1.15-.66Zm.37-10.15v0l1.36-.78,1.15.66-1.37.81-1.14-.66Zm.07,3h0l1.36-.79,1.15.66-1.37.82-1.15-.67Zm.45,2.72v0l1.36-.78,1.15.66-1.37.81-1.15-.66Zm.25,2.6h0l1.36-.79,1.15.67-1.37.81-1.15-.67Zm.75,2.89h0l1.36-.79,1.15.67-1.37.81-1.15-.67Zm.37-10.14s0,0,0,0l1.36-.78,1.15.66-1.37.81-1.15-.66Zm.06,3v0l1.36-.78,1.15.66-1.36.81-1.15-.66Zm.21,10v0l1.36-.79,1.45.84-1.37.81-1.45-.83Zm.24-7.24v0l1.36-.78,1.15.66-1.37.81-1.15-.66Zm.25,2.6v0l1.36-.78,1.15.66-1.37.82L186,263.6Zm.75,2.89s0,0,0,0l1.36-.78,1.15.66-1.37.82-1.15-.67Zm.37-10.14v0l1.36-.79,1.15.67-1.37.81-1.15-.66Zm.07,3s0,0,0,0l1.36-.78,1.15.66-1.37.81-1.15-.66Zm.45,2.72s0,0,0,0l1.36-.79,1.15.67-1.37.81-1.15-.66Zm.05,7.41v0l1.36-.79,1.45.84-1.37.81-1.44-.83Zm.2-4.81s0,0,0,0l1.36-.78,1.15.66-1.37.81-1.15-.66Zm.74,2.89v0l1.36-.78,1.15.66-1.36.81-1.15-.66Zm.44-7.12v0l1.36-.79,1.15.67-1.37.81-1.15-.66Zm.45,2.71a0,0,0,0,1,0,0l1.36-.79L192,263l-1.37.81-1.15-.67Zm.25,2.61v0l1.36-.79,1.15.67-1.37.81-1.15-.66Zm.06-7.87v0l1.36-.79,1.16.67-1.37.81-1.15-.66Zm.05,12.85s0,0,0,0l1.35-.79,1.45.84-1.37.81-1.44-.83Zm.64-2.09s0,0,0,0l1.36-.79,1.15.67-1.37.81-1.15-.66Zm.44-7.13h0l1.36-.79,1.15.67-1.37.81-1.15-.67Zm.45,2.72v0l1.36-.78,1.16.66-1.37.82-1.15-.67Zm.24,2.61v0l1.37-.79,1.15.67-1.37.81-1.15-.67Zm.06-7.88h0l1.36-.79,1.15.67-1.37.81L191.7,259Zm.35,13h0l1.36-.79,1.84,1.07-1.37.81L192.05,272Zm.34-2.26h0l1.36-.79,3.63,2.1-1.37.81-3.63-2.1Zm.44-7.12v0l1.36-.78,1.15.66-1.37.82-1.15-.67Zm.45,2.72v0l1.36-.78,1.15.66-1.37.81-1.15-.66Zm.25,2.6h0l1.36-.79,1.15.66-1.37.82-1.15-.67Zm.05-7.87v0l1.36-.78,1.15.66-1.36.82-1.15-.67Zm1.13,3.64v0l1.36-.78,1.16.66-1.37.81-1.15-.66Zm.31,10a0,0,0,0,1,0,0l1.36-.79,1.15.66-1.37.82-1.15-.67Zm.14-7.29v0l1.36-.79,1.15.67-1.36.81-1.15-.66Zm.25,2.6v0l1.36-.78,1.06.61a.72.72,0,0,0,.33.06.73.73,0,0,0,.35-.07l1.78-1,1.35.78-3.5,2L195.42,269Zm.06-7.87s0,0,0,0l1.36-.78L198,261l-1.37.81-1.15-.66Zm1.13,3.64s0,0,0,0L198,264l1.15.67-1.37.81-1.15-.66Zm.31,10s0,0,0,0l1.36-.78,1.15.66-1.37.81-1.15-.66Zm.14-7.29s0,0,0,0l1.36-.79,1.15.67-1.37.81-1.15-.66Zm1.12-4.8s0,0,0,0l1.36-.78,1.15.66-1.37.81-1.15-.66Zm.31,3.16h0l1.36-.79,1.15.67-1.37.81-1.14-.67Zm.31,10v0l1.36-.79,1.15.67-1.37.81-1.15-.66Zm.24-2.32v0l1.37-.78,1.15.66-1.37.81-1.15-.66Zm1-9.77v0l1.36-.78,1.16.66-1.37.81-1.15-.66Zm.31,3.16s0,0,0,0l1.36-.78,2,1.18-1.37.81-2-1.18Zm.7,10.24h0l1.36-.79,3,1.75-1.37.82-3-1.76Zm.34-7.18h0l1.36-.79,1.15.67-1.37.81-1.15-.67Zm.53-5.13v0l1.36-.79,1.15.67-1.37.81-1.15-.66ZM203.2,276v0l1.36-.79,1.15.67-1.37.81L203.2,276Zm.09-4.87v0l1.36-.78,1.16.66-1.37.82-1.15-.67Zm.25-2.32h0l1.36-.79,1.15.67-1.37.81-1.15-.67Zm.28-2.82h0l1.36-.79,1.15.67-1.36.81-1.15-.67Zm1,13.41v0l1.36-.78,1.15.66-1.37.81-1.15-.66Zm.24-2.32v0l1.36-.78,1.16.66-1.37.82-1.15-.67Zm.1-4.86s0,0,0,0l1.36-.78,1.15.66-1.37.81-1.15-.66Zm.15,2.55v0l1.36-.79,1.15.67-1.37.81-1.15-.66Zm.09-4.87v0l1.36-.78,1.15.66-1.36.82-1.15-.67Zm.7-2.58v0l1.36-.78,1.16.66-1.37.82-1.15-.67Zm.6,13.17v0l3.49-2,1.15.66-3.49,2-1.16-.66Zm.25-2.32s0,0,0,0l1.36-.78,1.15.66-1.37.81-1.15-.66Zm.24-2.32h0l1.36-.79,1.15.67-1.36.81-1.15-.67Zm.1-4.86s0,0,0,0l1.36-.78,1.15.66-1.37.81-1.15-.66Zm.15,2.55s0,0,0,0l1.36-.79,1.15.67-1.37.81-1.15-.66Zm.55-5.13s0,0,0,0l1.36-.78,1.15.66-1.37.81-1.15-.66Zm1.09,8.53v0l1.36-.78,1.15.66-1.37.82-1.15-.67Zm.24-2.32h0l1.36-.79,1.15.67-1.37.81-1.14-.67Zm.25-2.31s0,0,0,0l1.36-.79,1.15.67-1.37.81-1.15-.66Zm.3-2.81v0l1.36-.79,1.15.67-1.37.81-1.15-.66ZM211,278v0l3.49-2,1.15.66-3.5,2L211,278Zm.25-2.32v0l1.36-.78,1.15.66-1.37.82-1.15-.67Zm.24-2.32h0l1.36-.79,1.15.67-1.37.81-1.14-.67Zm1.25-2.89v0l.58-.34,1.15.67-.59.36-1.15-.66Zm.64,4s0,0,0,0l1.36-.78,1.15.66-1.37.82-1.15-.67Zm1.24-2.89v0l.58-.34,1.15.66-.59.37-1.14-.66Zm.64,4v0l1.36-.78,1.15.66-1.37.81-1.15-.66Zm1.25-2.9a0,0,0,0,1,0,0l.57-.34,1.16.66-.59.37-1.15-.67Zm1.88,1.09v0l.58-.34,1.15.67-.59.36-1.15-.66Z" style="fill:#455a64"></path></g></g><g id="freepik--monitor--inject-5"><polygon id="freepik--shadow--inject-5" points="253.82 273.4 267.13 265.72 200.56 227.28 187.24 234.97 253.82 273.4" style="opacity:0.05"></polygon><g id="freepik--monitor--inject-5"><path d="M213.62,262.3l-9.5-5.5a2.5,2.5,0,0,1-1.47-2.05c0-.74,0-1.32,0-1.32L214.08,247a2.1,2.1,0,0,0,.95-1.64V233.59l16.6,9.59V254.9a2.08,2.08,0,0,1-.94,1.64l-10,5.76A7.86,7.86,0,0,1,213.62,262.3Z" style="fill:#e6e6e6"></path><path d="M227.65,257v1.31l3-1.75a2.09,2.09,0,0,0,.95-1.64V243.18l-3.17-1.82c-.06.8-.13,1.63-.2,2.44l2.22,1.28v9.16a2.07,2.07,0,0,1-1,1.64Z" style="fill:#e0e0e0"></path><path d="M230.49,254.24a2.07,2.07,0,0,1-1,1.64L220.72,261a7.81,7.81,0,0,1-7.09,0l-9.52-5.49c-2-1.13-2-3,0-4.1l8.83-5.09a2.12,2.12,0,0,0,.95-1.64v-9.16l16.6,9.59Z" style="fill:#f5f5f5"></path><path d="M211,247.4h0l1.93-1.11a2.12,2.12,0,0,0,.95-1.64v-9.16l16.6,9.59v9.16a2.07,2.07,0,0,1-1,1.64L227.65,257Z" style="fill:#ebebeb"></path><path d="M202.65,253.43v1.32a2.5,2.5,0,0,0,1.47,2.05l9.5,5.49a7.06,7.06,0,0,0,3.39.84v-1.31a7.18,7.18,0,0,1-3.39-.84l-9.5-5.5A2.5,2.5,0,0,1,202.65,253.43Z" style="fill:#ebebeb"></path><path d="M257.15,266.89a2.54,2.54,0,0,1-2.29-.05l-64.22-37.07a2.62,2.62,0,0,1-1.18-2.05v-56.2a2.22,2.22,0,0,1,3.4-2l64.22,37.08a2.6,2.6,0,0,1,1.18,2.05v56.2A2.57,2.57,0,0,1,257.15,266.89Z" style="fill:#455a64"></path><path d="M254.86,266.84l-64.22-37.07a2.62,2.62,0,0,1-1.18-2.05v-56.2c0-.76.53-1.06,1.18-.69l64.22,37.08A2.6,2.6,0,0,1,256,210v56.2C256,266.91,255.51,267.22,254.86,266.84Z" style="fill:#0D6EFD"></path><path d="M254.86,266.84l-64.22-37.07a2.62,2.62,0,0,1-1.18-2.05v-56.2c0-.76.53-1.06,1.18-.69l64.22,37.08A2.6,2.6,0,0,1,256,210v56.2C256,266.91,255.51,267.22,254.86,266.84Z" style="fill:#37474f"></path><path d="M255,266.93a2.21,2.21,0,0,0,3.23-2.05v-6.32L256,259.84v6.32C256,266.85,255.6,267.16,255,266.93Z" style="fill:#e0e0e0"></path><path d="M256,259.84v6.32c0,.75-.53,1.06-1.18.68l-64.22-37.07a2.62,2.62,0,0,1-1.18-2.05V221.4Z" style="fill:#fff"></path><path d="M253.82,255.18V210.69a1.59,1.59,0,0,0-.71-1.23l-60.72-35.05c-.39-.23-.71,0-.71.41V219.3a1.59,1.59,0,0,0,.71,1.23l60.72,35.06C253.5,255.81,253.82,255.63,253.82,255.18Z" style="fill:#0D6EFD"></path><path d="M253.82,255.18V210.69a1.59,1.59,0,0,0-.71-1.23l-60.72-35.05c-.39-.23-.71,0-.71.41V219.3a1.59,1.59,0,0,0,.71,1.23l60.72,35.06C253.5,255.81,253.82,255.63,253.82,255.18Z" style="fill:#fff;opacity:0.5"></path><path d="M222.75,243.18a2.48,2.48,0,0,1,1.11,1.92c0,.71-.5,1-1.11.64a2.45,2.45,0,0,1-1.11-1.92C221.64,243.11,222.14,242.83,222.75,243.18Z" style="fill:#455a64"></path><path d="M255.69,208.78A2.54,2.54,0,0,1,256,210v49.89l2.22-1.28V208.68a2.47,2.47,0,0,0-.35-1.17Z" style="fill:#263238"></path></g></g><g id="freepik--Papers--inject-5"><path id="freepik--shadow--inject-5" d="M152.77,261a2.53,2.53,0,0,0,1.2-.29l19.87-11.48a1.07,1.07,0,0,0,.61-.91,1.09,1.09,0,0,0-.61-.91l-3.55-2,1.7-1a1,1,0,0,0,0-1.81l-29.25-16.89a2.36,2.36,0,0,0-1.19-.29,2.41,2.41,0,0,0-1.19.29l-19.87,11.47a1.09,1.09,0,0,0-.61.91,1.07,1.07,0,0,0,.61.91L124,241l-1.69,1a1,1,0,0,0,0,1.82l29.25,16.89A2.52,2.52,0,0,0,152.77,261Z" style="opacity:0.05"></path><path d="M122.11,241.34a.71.71,0,0,1,.42-.58l19.87-11.47a2.2,2.2,0,0,1,2,0l29.25,16.89a.7.7,0,0,1,.41.57v.91a.7.7,0,0,1-.41.57l-19.88,11.48a2.25,2.25,0,0,1-2,0l-29.25-16.89a.74.74,0,0,1-.42-.57Z" style="fill:#ebebeb"></path><path d="M173.65,246.18,144.4,229.29a2.2,2.2,0,0,0-2,0l-19.87,11.47a.61.61,0,0,0,0,1.16l29.25,16.88a2.18,2.18,0,0,0,2,0l19.88-11.47A.61.61,0,0,0,173.65,246.18Z" style="fill:#fff"></path><path d="M152.78,259v.9a2,2,0,0,0,1-.24l19.87-11.46a.73.73,0,0,0,.41-.58v-.91a.7.7,0,0,1-.41.58L153.78,258.8A2,2,0,0,1,152.78,259Z" style="fill:#e0e0e0"></path><path d="M120.27,236.49a.68.68,0,0,1,.41-.57l19.87-11.48a2.2,2.2,0,0,1,2,0l29.25,16.89a.69.69,0,0,1,.41.58v.9a.69.69,0,0,1-.41.57l-19.87,11.48a2.2,2.2,0,0,1-2,0L120.68,238a.69.69,0,0,1-.41-.57Z" style="fill:#ebebeb"></path><path d="M171.8,241.33l-29.25-16.89a2.2,2.2,0,0,0-2,0l-19.87,11.48a.61.61,0,0,0,0,1.15L149.93,254a2.27,2.27,0,0,0,2,0l19.87-11.48A.61.61,0,0,0,171.8,241.33Z" style="fill:#fff"></path><path d="M150.93,254.2v.9a2.05,2.05,0,0,0,1-.24l19.87-11.47a.71.71,0,0,0,.41-.58v-.91a.7.7,0,0,1-.41.58L151.93,254A2.05,2.05,0,0,1,150.93,254.2Z" style="fill:#e0e0e0"></path></g><g id="freepik--black-pencil--inject-5"><polygon id="freepik--shadow--inject-5" points="233.95 274.96 214.16 286.36 216.53 287.74 236.19 276.25 238.15 273.51 233.95 274.96" style="opacity:0.1"></polygon><g id="freepik--Pencil--inject-5"><path d="M235.88,275.52l2.36-2.8a.11.11,0,0,0-.11-.18l-3.59.79Z" style="fill:#f28f8f"></path><path d="M238.15,272.54h0l-3.59.79.71,1.16.38-.24,2.51-1.58Z" style="fill:#ffa8a7"></path><path d="M238.13,272.54a.11.11,0,0,1,.11.18l-.46.54h0a.62.62,0,0,0-.36-.53l-.06,0Z" style="fill:#263238"></path><path d="M218.28,283.14l.29-.17.35-.22,15.62-9.42a1.86,1.86,0,0,1,1.34,2.18l-15.61,9.42-.67.41C220,285.05,218.7,282.86,218.28,283.14Z" style="fill:#37474f"></path><path d="M218.28,283.14l.29-.17.35-.22,15.62-9.42a1.74,1.74,0,0,1,1.14.89l-16.29,9.94s0,.07,0,.07C219,283.6,218.52,283,218.28,283.14Z" style="fill:#455a64"></path><path d="M219.38,282.47l.65-.39c.18-.12.54.21.86.65s.7,1.4.45,1.56l-.47.28-.18.1c.25-.15,0-1-.45-1.56-.3-.41-.65-.73-.84-.65h0Z" style="fill:#ebebeb"></path><path d="M219.54,282.38c.43-.28,1.74,1.92,1.32,2.2l-.65.39c.43-.28-.89-2.48-1.31-2.2Z" style="fill:#37474f"></path><path d="M218.28,283.14l.64-.39c.42-.27,1.7,1.84,1.35,2.18l0,0-.65.39C220,285.05,218.7,282.86,218.28,283.14Z" style="fill:#ebebeb"></path><path d="M238.24,272.58a.08.08,0,0,0-.09,0A.08.08,0,0,1,238.24,272.58Z" style="fill:#ffa8a7"></path><path d="M215.57,284.78l2.71-1.64c.18-.12.54.2.86.63.43.58.7,1.41.46,1.57h0L216.88,287c-.55.32-1.34-.7-1.51-1.49A.65.65,0,0,1,215.57,284.78Z" style="fill:#f28f8f"></path><path d="M216.39,285.05a2,2,0,0,1,.65,1.64.44.44,0,0,1-.25.34c-.54.17-1.26-.78-1.42-1.53a.67.67,0,0,1,.19-.71C215.76,284.67,216.08,284.76,216.39,285.05Z" style="opacity:0.1"></path></g></g><g id="freepik--Device--inject-5"><g id="freepik--device--inject-5"><path d="M338.32,244.48l11.77,6.86a.91.91,0,0,0,.82,0l22.36-12.89a.25.25,0,0,0,0-.47l-11.77-6.86a1,1,0,0,0-.81,0L338.32,244A.25.25,0,0,0,338.32,244.48Z" style="opacity:0.05"></path><path d="M339.91,241.92c-.16.12-.14.3,0,.41l10.64,6.14a.81.81,0,0,0,.77,0l20.32-11.73c.2-.12.22-.29.05-.42a.87.87,0,0,1,.34.64v.51a.83.83,0,0,1-.39.67l-20.32,11.74a.87.87,0,0,1-.77,0L340,243.74a.86.86,0,0,1-.39-.67v-.51A.87.87,0,0,1,339.91,241.92Z" style="fill:#0D6EFD"></path><path d="M339.91,241.92c-.16.12-.14.3,0,.41l10.64,6.14a.81.81,0,0,0,.77,0l20.32-11.73c.2-.12.22-.29.05-.42a.87.87,0,0,1,.34.64v.51a.83.83,0,0,1-.39.67l-20.32,11.74a.87.87,0,0,1-.77,0L340,243.74a.86.86,0,0,1-.39-.67v-.51A.87.87,0,0,1,339.91,241.92Z" style="opacity:0.5"></path><path d="M340,242.33l10.64,6.14a.81.81,0,0,0,.77,0l20.32-11.73c.22-.13.22-.33,0-.45l-10.63-6.14a.87.87,0,0,0-.77,0L340,241.89A.23.23,0,0,0,340,242.33Zm18.69-10.59a.53.53,0,0,1,.56.06l9.67,5.58a.21.21,0,0,1,0,.39l-15.83,9.13a.7.7,0,0,1-.66,0l-9.67-5.58c-.19-.11-.18-.28,0-.38Z" style="fill:#0D6EFD"></path><path d="M340,242.33l10.64,6.14a.81.81,0,0,0,.77,0l20.32-11.73c.22-.13.22-.33,0-.45l-10.63-6.14a.87.87,0,0,0-.77,0L340,241.89A.23.23,0,0,0,340,242.33Zm18.69-10.59a.53.53,0,0,1,.56.06l9.67,5.58a.21.21,0,0,1,0,.39l-15.83,9.13a.7.7,0,0,1-.66,0l-9.67-5.58c-.19-.11-.18-.28,0-.38Z" style="opacity:0.30000000000000004"></path><path d="M371.74,236.32a.87.87,0,0,1,.34.64v.51a.83.83,0,0,1-.39.67l-20.32,11.74a.83.83,0,0,1-.39.09v-1.41a.83.83,0,0,0,.39-.09l20.32-11.73C371.89,236.62,371.91,236.45,371.74,236.32Z" style="fill:#0D6EFD"></path><path d="M371.74,236.32a.87.87,0,0,1,.34.64v.51a.83.83,0,0,1-.39.67l-20.32,11.74a.83.83,0,0,1-.39.09v-1.41a.83.83,0,0,0,.39-.09l20.32-11.73C371.89,236.62,371.91,236.45,371.74,236.32Z" style="opacity:0.6000000000000001"></path><ellipse cx="346.2" cy="245.01" rx="0.37" ry="0.21"></ellipse><path d="M365.25,234.52a1.35,1.35,0,0,1-.67-.16h0a.53.53,0,0,1-.31-.45.55.55,0,0,1,.31-.46,1.5,1.5,0,0,1,1.34,0,.55.55,0,0,1,.31.46.53.53,0,0,1-.31.45A1.35,1.35,0,0,1,365.25,234.52Zm-.55-.36a1.25,1.25,0,0,0,1.1,0c.12-.07.2-.16.2-.25s-.08-.18-.2-.25a1.19,1.19,0,0,0-1.1,0c-.13.07-.2.16-.2.25s.07.18.2.25Z" style="fill:#e6e6e6"></path><path d="M347.71,245.23l-2-1.16c-.12-.07-.12-.17,0-.24a.48.48,0,0,1,.42,0l2,1.15c.12.07.12.18,0,.25A.48.48,0,0,1,347.71,245.23Z"></path><path d="M358.65,231.74a.53.53,0,0,1,.56.06l9.67,5.58a.21.21,0,0,1,0,.39l-15.83,9.13a.7.7,0,0,1-.66,0l-9.67-5.58c-.19-.11-.18-.28,0-.38Z" style="fill:#fafafa"></path></g><path d="M353.26,246.17l-.1.06a.11.11,0,0,1-.08,0h0s0,0,0-.05l.1-.06a.11.11,0,0,1,.08,0h0S353.28,246.15,353.26,246.17Z" style="fill:#455a64"></path><path d="M353.08,246.06l-.18.1a.06.06,0,0,1-.08,0h0s0,0,0,0l.18-.1a.06.06,0,0,1,.08,0h0S353.1,246.05,353.08,246.06Z" style="fill:#455a64"></path><path d="M352.89,246l-.25.15a.11.11,0,0,1-.08,0h0a0,0,0,0,1,0,0l.25-.15a.11.11,0,0,1,.08,0h0S352.92,245.94,352.89,246Z" style="fill:#455a64"></path><path d="M352.71,245.85l-.44.25a.11.11,0,0,1-.08,0h0a0,0,0,0,1,0,0l.44-.25a.06.06,0,0,1,.08,0h0S352.73,245.84,352.71,245.85Z" style="fill:#455a64"></path><path d="M352.24,245.54s0,0,0,0l-.06,0,.21.12s0,0,0,0h-.54l0,0h0l.22-.13,0,0H352l0,0,.06,0h0l0,0Zm-.14.08-.16.09h.31Z" style="fill:#455a64"></path><path d="M352,245.43s0,.08-.09.12a.46.46,0,0,1-.21,0,.63.63,0,0,1-.22-.07l-.07-.05,0,0h.07a.23.23,0,0,0,.09.07.27.27,0,0,0,.15,0,.28.28,0,0,0,.15,0s.07-.06.07-.09,0-.06-.08-.08l0,0-.05,0-.11.06.09,0h0v0h0s0,0,0,0l-.14-.08h0s0,0,0,0l.14-.08h0a.6.6,0,0,1,.19.08C351.91,245.34,352,245.38,352,245.43Z" style="fill:#455a64"></path><path d="M348.49,243.78l.24-.14a0,0,0,0,0,0,0l-.24-.14a.09.09,0,0,0-.07,0l-.24.14a0,0,0,0,0,0,0l.24.14Z" style="fill:#455a64"></path><path d="M348.16,243.68a.07.07,0,0,0-.05.06.13.13,0,0,0,.05.06.15.15,0,0,0,.16,0l.09-.05,0,0-.09,0a.13.13,0,0,1-.12,0s0,0,0,0,0,0,0,0l.08,0,0,0Z" style="fill:#455a64"></path><path d="M343.72,241.12s0,0,0,.07l.61.36a.21.21,0,0,0,.19,0l.23-.13a.09.09,0,0,0,0-.07,0,0,0,0,0,0,0l0,0-.62-.36a.21.21,0,0,0-.19,0l-.22.13A.1.1,0,0,0,343.72,241.12Zm1.08.23s0,0,0,0l-.22.13a.19.19,0,0,1-.15,0l-.61-.36a0,0,0,0,1,0,0h0s0,0,0,0L344,241a.2.2,0,0,1,.15,0l.61.36Z" style="fill:#455a64"></path><path d="M344.72,241.34h0l-.2.12a.11.11,0,0,1-.11,0l-.55-.32h0l.2-.12a.11.11,0,0,1,.11,0l.55.32Z" style="fill:#455a64"></path><path d="M343.74,241s0,0,0-.08l0,0a.17.17,0,0,1,.13,0l0,0-.21.12Z" style="fill:#455a64"></path><path d="M354.24,243.07a.38.38,0,0,0-.2-.25,1,1,0,0,0-1,.05,1.37,1.37,0,0,1,.61.15c.34.2.43.42.12.61a1.24,1.24,0,0,1-1.12-.08c-.39-.23-.5-.55,0-.84a1.6,1.6,0,0,1,1.61,0,.65.65,0,0,1,.36.41Zm-1.42-.08c-.22.17-.19.32,0,.43a.59.59,0,0,0,.59,0c.17-.1.15-.22-.05-.34A1.1,1.1,0,0,0,352.82,243Z" style="fill:#455a64"></path><path d="M351.7,242.57c-.13-.07-.16-.18-.05-.24a.45.45,0,0,1,.42,0c.13.08.15.18.05.24A.45.45,0,0,1,351.7,242.57Zm.81-.46c-.14-.08-.16-.18-.05-.24a.46.46,0,0,1,.41,0c.14.08.16.19.06.25A.48.48,0,0,1,352.51,242.11Z" style="fill:#455a64"></path><path d="M351.53,242a1.43,1.43,0,0,1-1.45.05c-.42-.24-.41-.55.09-.84a1.47,1.47,0,0,1,1.47-.06C352.05,241.42,352,241.73,351.53,242Zm-1-.59c-.43.25-.42.4-.23.52s.47.11.89-.13.44-.42.24-.53S350.94,241.2,350.52,241.44Z" style="fill:#455a64"></path><path d="M349.92,241.09a1.41,1.41,0,0,1-1.45.06c-.42-.24-.42-.55.09-.84a1.45,1.45,0,0,1,1.46-.06C350.44,240.49,350.42,240.8,349.92,241.09Zm-1-.58c-.42.25-.42.4-.22.52s.47.11.89-.13.43-.42.24-.53S349.33,240.26,348.9,240.51Z" style="fill:#455a64"></path></g><g id="freepik--Coffe--inject-5"><g style="opacity:0.05"><path d="M331.87,258.36a20.28,20.28,0,0,0-13.28,0c-3.6,1.5-3.6,3.92,0,5.41a20.28,20.28,0,0,0,13.28,0C335.59,262.28,335.59,259.86,331.87,258.36Z"></path></g><path d="M334.34,239.05l-18.13,0,1.38,21.35h0c.08.78.81,1.55,2.19,2.14a16,16,0,0,0,10.87,0c1.44-.59,2.19-1.36,2.28-2.14h0Z" style="fill:#fafafa"></path><path d="M316.21,239.07l.28,4.33a8.23,8.23,0,0,0,1.52.82,22,22,0,0,0,14.43,0c.18-.07.32-.15.48-.22a9.89,9.89,0,0,0,1.14-.64l.28-4.31Z" style="fill:#e0e0e0"></path><path d="M334.66,239.77v-3h-1.94a7.47,7.47,0,0,0-.85-.39,20.16,20.16,0,0,0-13.28,0,6.79,6.79,0,0,0-.81.39h-1.89v3h0c0,1,.9,2,2.7,2.7a20.16,20.16,0,0,0,13.28,0C333.73,241.73,334.66,240.75,334.66,239.77Z" style="fill:#37474f"></path><path d="M331.87,234.07a20.16,20.16,0,0,0-13.28,0c-3.6,1.49-3.6,3.91,0,5.4a20.28,20.28,0,0,0,13.28,0C335.59,238,335.59,235.56,331.87,234.07Z" style="fill:#455a64"></path><path d="M332.26,235.92h0l-.75-2H319l-.75,2h0c-.28.78.37,1.6,2,2.2a16.66,16.66,0,0,0,10,0C331.88,237.52,332.55,236.7,332.26,235.92Z" style="fill:#37474f"></path><path d="M329.68,232.52a14.91,14.91,0,0,0-8.87,0c-2.41.91-2.41,2.38,0,3.29a14.91,14.91,0,0,0,8.87,0C332.18,234.9,332.18,233.43,329.68,232.52Z" style="fill:#455a64"></path><path d="M330.69,234.17a.8.8,0,0,1-.28.31,3.85,3.85,0,0,1-1,.52,13.14,13.14,0,0,1-4.18.63,12.18,12.18,0,0,1-4.1-.63,3.55,3.55,0,0,1-1-.52c-.2-.17-.26-.29-.26-.32s.22-.44,1.25-.83a12.2,12.2,0,0,1,4.1-.62,12.6,12.6,0,0,1,4.18.63C330.43,233.71,330.68,234.09,330.69,234.17Z" style="fill:#37474f"></path><path d="M330.41,234.48a3.85,3.85,0,0,1-1,.52,13.14,13.14,0,0,1-4.18.63,12.18,12.18,0,0,1-4.1-.63,3.55,3.55,0,0,1-1-.52,3.3,3.3,0,0,1,1-.52,12.18,12.18,0,0,1,4.1-.63,12.86,12.86,0,0,1,4.18.63A3.85,3.85,0,0,1,330.41,234.48Z" style="fill:#263238"></path><path d="M327.92,234.53a1.23,1.23,0,0,1,1-.18c.18.1,0,.35-.33.56a1.25,1.25,0,0,1-1,.19C327.4,235,327.55,234.74,327.92,234.53Z"></path></g></g></g><g id="freepik--Chair--inject-5"><g id="freepik--chair--inject-5"><path d="M126.66,425.63a1.12,1.12,0,0,0,1.11-1.12V352.59a1.12,1.12,0,1,0-2.23,0v71.92A1.12,1.12,0,0,0,126.66,425.63Z" style="fill:#455a64"></path><path d="M82.16,399.45a1.12,1.12,0,0,0,1-.71l22-55.82a1.12,1.12,0,0,0-2.08-.82l-22,55.82a1.11,1.11,0,0,0,.63,1.45A1,1,0,0,0,82.16,399.45Z" style="fill:#455a64"></path><path d="M84.81,392.75a1.09,1.09,0,0,0,.81-.36l41-43.42,41,43.24a1.12,1.12,0,1,0,1.62-1.54l-41.77-44.1a1.14,1.14,0,0,0-.81-.35h0a1.14,1.14,0,0,0-.82.35L84,390.86a1.11,1.11,0,0,0,0,1.58A1.14,1.14,0,0,0,84.81,392.75Z" style="fill:#455a64"></path><path d="M171.15,399.45a1,1,0,0,0,.41-.08,1.11,1.11,0,0,0,.63-1.45L150.14,342.1a1.12,1.12,0,1,0-2.08.82l22.05,55.82A1.13,1.13,0,0,0,171.15,399.45Z" style="fill:#455a64"></path><path d="M171.69,327.93c.8-4.52-2.87-8-9.79-12.7a163.19,163.19,0,0,0-20-11.26c-5.78-2.65-11.7-2.41-19.11,1.4-10.29,5.28-41.25,24.06-41.25,24.06s46.29,26.13,55.2,25,31.17-15.65,32.93-20.74S171.69,327.93,171.69,327.93Z" style="fill:#455a64"></path><path d="M132.24,348.89c6.64,6,13.59.84,24.58-6.29,12.43-8.07,14.87-14.67,14.87-14.67s0,4.94-.93,7.26-2.93,4.95-11.9,11.14-15.47,9.28-21.5,10.42l-4.75-.65" style="fill:#263238"></path><path d="M83.68,391l-2.92,7.7a1.23,1.23,0,0,0,0,.19.33.33,0,0,0,0,.14.88.88,0,0,0,.44.49,2,2,0,0,0,1.77,0,.82.82,0,0,0,.35-.37h0l0-.1L86,391.84Z" style="fill:#0D6EFD"></path><path d="M169.63,391l2.92,7.7a.62.62,0,0,1,0,.19.33.33,0,0,1,0,.14.89.89,0,0,1-.43.49,2,2,0,0,1-1.78,0,.74.74,0,0,1-.34-.37h0l0-.1-2.7-7.22Z" style="fill:#0D6EFD"></path><path d="M125.37,418.94v6.37a.62.62,0,0,0,.37.52,2,2,0,0,0,1.83,0,.63.63,0,0,0,.38-.52v-6.37A2.74,2.74,0,0,0,125.37,418.94Z" style="fill:#0D6EFD"></path><path d="M132.61,356.1c-3.79-.19-6.75-3-15.75-6.72-16.61-6.92-29.07-12.46-33.82-21.16s-8.11-33.82-6.92-44.7a14.78,14.78,0,0,1,.81-3.61l-1.16-.17,3-2.57h0c3.11-2.53,8.16-.27,12,1.8,10.87,5.92,19.38,11.67,26.1,32.43,5.06,15.63,8.4,29.87,15.38,37.49" style="fill:#37474f"></path><path d="M87.6,281.64c10.88,5.92,19.39,11.67,26.11,32.44s10.4,39.11,23.65,42.67c0,0-6,2.38-24.35-5.38-5.84-2.47-12.93-7-17.59-9.59-9.12-5.12-14.66-9.32-15.53-10.89-4.82-8.66-8.11-33.82-6.92-44.7S82.16,278.68,87.6,281.64Z" style="fill:#455a64"></path></g></g><g id="freepik--Plant--inject-5"><g id="freepik--Pot--inject-5"><path d="M408.06,362.9c7.13-7.27,11.32-36.89,4.37-42.66H377c-6.95,5.77-2.77,35.37,4.36,42.66l.2.2.24.24c.2.19.42.38.65.57a1.09,1.09,0,0,0,.17.13c.17.14.34.28.53.41a9.58,9.58,0,0,0,.93.59c5.86,3.39,15.37,3.39,21.24,0h0q.47-.27.93-.6c.18-.12.34-.25.5-.37l.21-.17c.22-.18.43-.36.62-.55l.29-.28Z" style="fill:#0D6EFD"></path><g style="opacity:0.5"><path d="M408.06,362.9c7.13-7.27,11.32-36.89,4.37-42.66H377c-6.95,5.77-2.77,35.37,4.36,42.66l.2.2.24.24c.2.19.42.38.65.57a1.09,1.09,0,0,0,.17.13c.17.14.34.28.53.41a9.58,9.58,0,0,0,.93.59c5.86,3.39,15.37,3.39,21.24,0h0q.47-.27.93-.6c.18-.12.34-.25.5-.37l.21-.17c.22-.18.43-.36.62-.55l.29-.28Z" style="fill:#fff"></path></g><path d="M380.11,317.91c-8.08,4.67-8.08,12.23,0,16.89s21.16,4.66,29.24,0,8.08-12.22,0-16.89S388.18,313.25,380.11,317.91Z" style="fill:#0D6EFD"></path><g style="opacity:0.7000000000000001"><path d="M380.11,317.91c-8.08,4.67-8.08,12.23,0,16.89s21.16,4.66,29.24,0,8.08-12.22,0-16.89S388.18,313.25,380.11,317.91Z" style="fill:#fff"></path></g><path d="M384,320.16c-5.93,3.42-5.93,9,0,12.4s15.55,3.42,21.48,0,5.93-9,0-12.4S389.92,316.73,384,320.16Z" style="fill:#0D6EFD"></path><g style="opacity:0.2"><path d="M384,320.16c-5.93,3.42-5.93,9,0,12.4s15.55,3.42,21.48,0,5.93-9,0-12.4S389.92,316.73,384,320.16Z" style="fill:#fff"></path></g><path d="M405.47,326c-5.93-3.42-15.55-3.42-21.48,0a9.78,9.78,0,0,0-3.55,3.26,9.87,9.87,0,0,0,3.55,3.26c5.93,3.42,15.55,3.42,21.48,0A10,10,0,0,0,409,329.3,9.86,9.86,0,0,0,405.47,326Z" style="fill:#f5f5f5"></path><path d="M396.77,319.86a6.55,6.55,0,0,1-1.56-1.85,4.05,4.05,0,0,1,.4-3.44c.56-1.05,1.34-2,1.85-3.06a6.92,6.92,0,0,0-3.36-9.25c-.86-.4-1.81-.61-2.65-1.07a4.25,4.25,0,0,1-2.32-5,5.63,5.63,0,0,0-2.38-6.06c-2.22-1.35-5.19-.93-7.42-2.26-1.89-1.12-2.81-3.14-4.48-4.44-3.41-2.68-9.85-1.53-9.71,3.56.07,2.33,2,4.28,2.16,6.61.1,1.55-.6,3-1.08,4.51-.67,2.07-.86,4.56.54,6.23a14.6,14.6,0,0,0,2.75,2.1c2.11,1.54,2.34,4,1.91,6.42-.31,1.77-.75,3.62-.17,5.31,1,2.88,3.42,3.48,5.92,4.33a10.6,10.6,0,0,1,4.85,3.18,7.46,7.46,0,0,1,1.76,5.45l10.49-.11a1.8,1.8,0,0,1-.09-2.27,5,5,0,0,1,2-1.46,5.88,5.88,0,0,0,2-1.39,3.53,3.53,0,0,0,.47-3.23A6.84,6.84,0,0,0,396.77,319.86Z" style="fill:#0D6EFD"></path><path d="M396.77,319.86a6.55,6.55,0,0,1-1.56-1.85,4.05,4.05,0,0,1,.4-3.44c.56-1.05,1.34-2,1.85-3.06a6.92,6.92,0,0,0-3.36-9.25c-.86-.4-1.81-.61-2.65-1.07a4.25,4.25,0,0,1-2.32-5,5.63,5.63,0,0,0-2.38-6.06c-2.22-1.35-5.19-.93-7.42-2.26-1.89-1.12-2.81-3.14-4.48-4.44-3.41-2.68-9.85-1.53-9.71,3.56.07,2.33,2,4.28,2.16,6.61.1,1.55-.6,3-1.08,4.51-.67,2.07-.86,4.56.54,6.23a14.6,14.6,0,0,0,2.75,2.1c2.11,1.54,2.34,4,1.91,6.42-.31,1.77-.75,3.62-.17,5.31,1,2.88,3.42,3.48,5.92,4.33a10.6,10.6,0,0,1,4.85,3.18,7.46,7.46,0,0,1,1.76,5.45l10.49-.11a1.8,1.8,0,0,1-.09-2.27,5,5,0,0,1,2-1.46,5.88,5.88,0,0,0,2-1.39,3.53,3.53,0,0,0,.47-3.23A6.84,6.84,0,0,0,396.77,319.86Z" style="opacity:0.2"></path><path d="M388.71,328.67a.49.49,0,0,1-.5-.48c-.6-22.62-17.12-41.75-17.28-41.94a.51.51,0,0,1,0-.71.51.51,0,0,1,.71,0c.17.19,16.92,19.59,17.53,42.57a.5.5,0,0,1-.49.51Z" style="fill:#fff"></path><path d="M390.55,331.31a25,25,0,0,1-3.61-5.21,6.08,6.08,0,0,1,0-5.22c.69-1.25,1.94-2.14,2.5-3.45.79-1.9-.08-4.06-1.14-5.82s-2.34-3.54-2.41-5.59a6.17,6.17,0,0,1,2.37-4.79c2.2-1.81,7.47-1.38,8.68-4a6.18,6.18,0,0,0,.27-3.39,37.9,37.9,0,0,1-.66-6.62,7.27,7.27,0,0,1,2.83-5.76c3.36-2.24,7.9,0,11.05-2.52a28.83,28.83,0,0,1,6.08-4,10.43,10.43,0,0,1,7.13-.73,6.44,6.44,0,0,1,4.64,5.12,9.69,9.69,0,0,1-.61,4c-.52,1.69-1.11,3.51-.55,5.19a18.76,18.76,0,0,0,1.83,3.06,7,7,0,0,1-.11,6.92c-1.89,3.13-5.24,3.08-8.35,4-1.64.51-3.28,1.86-3.14,3.57.11,1.43,1.38,2.44,2.07,3.7a4.94,4.94,0,0,1-1.36,6.15c-2.43,1.79-6.3,1.15-8.22,3.49-2.28,2.78,1.61,4.9-.13,7.61-.78,1.24-2.4,1.58-3.82,1.92s-3,1-3.43,2.4Z" style="fill:#0D6EFD"></path><path d="M395.79,331.39h-.12a.5.5,0,0,1-.46-.53C396.85,307.38,414,283.5,419,279.48a.5.5,0,0,1,.63.78c-5.42,4.37-21.91,28.57-23.45,50.67A.52.52,0,0,1,395.79,331.39Z" style="fill:#fff"></path></g></g><g id="freepik--speech-bubble--inject-5"><g id="freepik--speach-bubble--inject-5"><path d="M291.36,34.71,328.28,56a3.26,3.26,0,0,1,1.47,2.55V109a3.21,3.21,0,0,1-1.48,2.54l-2.69,1.52a3.31,3.31,0,0,1-3,0L285.7,91.8a3.24,3.24,0,0,1-1.48-2.55V38.75a3.24,3.24,0,0,1,1.49-2.54l2.69-1.52A3.31,3.31,0,0,1,291.36,34.71Z" style="fill:#0D6EFD"></path><path d="M324.09,112.22V61.73a3.28,3.28,0,0,0-1.47-2.56L285.7,37.9c-.82-.47-1.48-.09-1.48.85v50.5a3.24,3.24,0,0,0,1.48,2.55l36.92,21.28C323.43,113.55,324.09,113.16,324.09,112.22Z" style="fill:#0D6EFD"></path><path d="M322.62,113.08a3.38,3.38,0,0,0,3,0l2.69-1.52a3.22,3.22,0,0,0,1.49-2.54V58.53a3.06,3.06,0,0,0-.47-1.5l-5.63,3.25a2.93,2.93,0,0,1,.43,1.45v50.49C324.09,113.08,323.49,113.58,322.62,113.08Z" style="opacity:0.2"></path><path d="M284.24,38.49c.12-.75.72-1,1.46-.59l36.92,21.27a3,3,0,0,1,1,1.11L329.29,57a2.84,2.84,0,0,0-1-1.05L291.35,34.71a3.29,3.29,0,0,0-3,0l-2.69,1.52A3.23,3.23,0,0,0,284.24,38.49Z" style="fill:#fff;opacity:0.4"></path><path d="M336.39,94.54c.92-.55,5.27-3,5.49-3.14a1.38,1.38,0,0,0,.3-2.11L329.63,73.63l-5.53,3.18,12.54,15.66A1.4,1.4,0,0,1,336.39,94.54Z" style="fill:#0D6EFD"></path><path d="M336.39,94.54c.92-.55,5.27-3,5.49-3.14a1.38,1.38,0,0,0,.3-2.11L329.63,73.63l-5.53,3.18,12.54,15.66A1.4,1.4,0,0,1,336.39,94.54Z" style="fill:#fff;opacity:0.4"></path><path d="M324.09,76.81l12.55,15.66a1.32,1.32,0,0,1-.84,2.26L324.09,96Z" style="fill:#0D6EFD"></path><path d="M306.87,97l-5.43-3.14a1.53,1.53,0,0,1-.64-1.22V90.33c0-.47.29-.69.64-.48L306.87,93a1.55,1.55,0,0,1,.64,1.22v2.28C307.51,97,307.22,97.17,306.87,97Z" style="fill:#fff"></path><path d="M299.89,74a5.25,5.25,0,0,1,1,2,2.54,2.54,0,0,1-1.12-1.15c-.07-.13-.27-.59-.1-.8S299.82,74,299.89,74Z" style="fill:#fff"></path><path d="M304.16,73.06a.5.5,0,0,1,.27.4,2.21,2.21,0,0,1-.27,1.39,3.63,3.63,0,0,1-.27-1.7C303.92,73,304,73,304.16,73.06Z" style="fill:#fff"></path><path d="M308.43,79l.05,0c.06,0,.12.1.2.29a.57.57,0,0,1-.1.69c-.23.19-.62.18-1.13-.15C307.83,79.11,308.19,78.89,308.43,79Z" style="fill:#fff"></path><path d="M295.61,69.6c0,9,5.6,13.78,5.6,17.42h0v1.53l5.9,3.42V90.43c0-3.65,5.59-1.92,5.59-11,0-6.29-3.82-13.6-8.54-16.32S295.61,63.3,295.61,69.6Zm3.46,3.57c.24-.3.59-.29,1,0a7,7,0,0,1,1.56,3,2.1,2.1,0,0,0,.82,0,2.69,2.69,0,0,0,1.31-.75,5.84,5.84,0,0,1-.51-2.94c.13-.51.48-.66,1-.38a2.16,2.16,0,0,1,.95,1.48,3.22,3.22,0,0,1-.52,2.34,13.63,13.63,0,0,0,1.32,2.27,8.3,8.3,0,0,0,.82,1c.46-1,1-1.42,1.56-1.25a1.83,1.83,0,0,1,1,1.09,1.66,1.66,0,0,1-.15,1.86c-.41.35-1.11.29-2-.37a13.18,13.18,0,0,0-.52,1.89,37.74,37.74,0,0,0-.71,7.27c0,.26-.15.39-.35.28a.9.9,0,0,1-.36-.67,38.56,38.56,0,0,1,.73-7.5,14.1,14.1,0,0,1,.52-1.9,11.31,11.31,0,0,1-.9-1.11,15.19,15.19,0,0,1-1.38-2.34,3.13,3.13,0,0,1-1.38.75,2.77,2.77,0,0,1-.9.06c.19.76.36,1.6.52,2.51a50,50,0,0,1,.72,8.34c0,.25-.16.36-.35.25h0a.84.84,0,0,1-.34-.68,49.81,49.81,0,0,0-.71-8.09c-.16-1-.34-1.79-.53-2.49a3.92,3.92,0,0,1-2-1.91A2.06,2.06,0,0,1,299.07,73.17Z" style="fill:#fff"></path><path d="M304.16,59.84a2,2,0,0,1-.74-1.56V55.76c0-.63.33-.95.74-.71a1.92,1.92,0,0,1,.74,1.56v2.52C304.9,59.76,304.57,60.07,304.16,59.84Z" style="fill:#fff"></path><path d="M298.7,58.94a1.68,1.68,0,0,1-.64-.94l-.82-2.65c-.2-.66-.08-1.29.27-1.4s.81.34,1,1l.82,2.65c.2.67.08,1.29-.27,1.4A.46.46,0,0,1,298.7,58.94Z" style="fill:#fff"></path><path d="M294.71,62.78a1.14,1.14,0,0,1-.37-.36l-1.42-2.08a2,2,0,0,1-.27-1.71c.2-.42.66-.35,1,.17l1.42,2.08a2,2,0,0,1,.27,1.7A.42.42,0,0,1,294.71,62.78Z" style="fill:#fff"></path><path d="M293.25,70.34l-1.64-1a1.92,1.92,0,0,1-.74-1.56c0-.62.33-.94.74-.71l1.64.95a2,2,0,0,1,.73,1.56C294,70.26,293.65,70.57,293.25,70.34Z" style="fill:#fff"></path><path d="M293.29,80a1.67,1.67,0,0,1-.64-.94c-.2-.66-.08-1.29.27-1.39l1.42-.45c.35-.11.8.34,1,1s.08,1.29-.27,1.4l-1.42.44A.5.5,0,0,1,293.29,80Z" style="fill:#fff"></path><path d="M315,92.58a1.3,1.3,0,0,1-.37-.37l-1.42-2.08a2,2,0,0,1-.27-1.7c.2-.43.66-.35,1,.16l1.42,2.08a2,2,0,0,1,.27,1.71A.43.43,0,0,1,315,92.58Z" style="fill:#fff"></path><path d="M316.71,83.89l-1.64-1a1.92,1.92,0,0,1-.74-1.56c0-.63.33-.95.74-.71l1.64,1a1.92,1.92,0,0,1,.74,1.56C317.45,83.8,317.12,84.12,316.71,83.89Z" style="fill:#fff"></path><path d="M313.61,73.7a1.67,1.67,0,0,1-.64-.94c-.2-.66-.08-1.29.27-1.4l1.42-.44c.35-.11.8.34,1,1s.08,1.28-.27,1.39l-1.42.45A.5.5,0,0,1,313.61,73.7Z" style="fill:#fff"></path><path d="M309.61,65.24a1.16,1.16,0,0,1-.36-.37,1.89,1.89,0,0,1-.27-1.7l.82-1.71c.2-.43.65-.35,1,.16a1.92,1.92,0,0,1,.27,1.71L310.25,65A.41.41,0,0,1,309.61,65.24Z" style="fill:#fff"></path></g></g></svg>